<?xml version="1.0" encoding="UTF-8" standalone="no"?>
<!-- Created with Inkscape (http://www.inkscape.org/) -->

<svg
   xmlns:dc="http://purl.org/dc/elements/1.1/"
   xmlns:cc="http://creativecommons.org/ns#"
   xmlns:rdf="http://www.w3.org/1999/02/22-rdf-syntax-ns#"
   xmlns:svg="http://www.w3.org/2000/svg"
   xmlns="http://www.w3.org/2000/svg"
   xmlns:sodipodi="http://sodipodi.sourceforge.net/DTD/sodipodi-0.dtd"
   xmlns:inkscape="http://www.inkscape.org/namespaces/inkscape"
   width="256"
   height="256"
   id="svg2"
   version="1.1"
   inkscape:version="0.48.1 r9760"
   sodipodi:docname="cardapio-dark256.svg"
   inkscape:export-filename="/home/jancborchardt/jancborchardt/Cardapio/cardapio-dark2562.png"
   inkscape:export-xdpi="90"
   inkscape:export-ydpi="90">
  <defs
     id="defs4">
    <filter
       inkscape:collect="always"
       id="filter4028"
       x="-0.12496875"
       width="1.2499375"
       y="-0.12496873"
       height="1.2499375"
       color-interpolation-filters="sRGB">
      <feGaussianBlur
         inkscape:collect="always"
         stdDeviation="13.33"
         id="feGaussianBlur4030" />
    </filter>
    <filter
       inkscape:collect="always"
       id="filter3963">
      <feGaussianBlur
         inkscape:collect="always"
         stdDeviation="6.4"
         id="feGaussianBlur3965" />
    </filter>
  </defs>
  <sodipodi:namedview
     id="base"
     pagecolor="#ffffff"
     bordercolor="#666666"
     borderopacity="1.0"
     inkscape:pageopacity="0.0"
     inkscape:pageshadow="2"
     inkscape:zoom="0.61871843"
     inkscape:cx="283.82552"
     inkscape:cy="-91.16025"
     inkscape:document-units="px"
     inkscape:current-layer="layer1"
     showgrid="false"
     inkscape:window-width="1280"
     inkscape:window-height="776"
     inkscape:window-x="0"
     inkscape:window-y="24"
     inkscape:window-maximized="1"
     showguides="true"
     inkscape:guide-bbox="true" />
  <metadata
     id="metadata7">
    <rdf:RDF>
      <cc:Work
         rdf:about="">
        <dc:format>image/svg+xml</dc:format>
        <dc:type
           rdf:resource="http://purl.org/dc/dcmitype/StillImage" />
        <dc:title></dc:title>
      </cc:Work>
    </rdf:RDF>
  </metadata>
  <g
     inkscape:label="Layer 1"
     inkscape:groupmode="layer"
     id="layer1"
     transform="translate(0,-796.36218)">
    <g
       style="font-size:40px;font-style:normal;font-weight:normal;line-height:125%;letter-spacing:0px;word-spacing:0px;fill:#000000;fill-opacity:1;stroke:none;font-family:Sans"
       id="text2985"
       transform="matrix(1.1160179,0,0,1.1160179,-14.849729,-107.24284)" />
    <g
       transform="matrix(1.1160179,0,0,1.1160179,-14.849729,-575.97034)"
       style="font-size:40px;font-style:normal;font-weight:normal;line-height:125%;letter-spacing:0px;word-spacing:0px;fill:#000000;fill-opacity:1;stroke:none;font-family:Sans"
       id="text2985-5" />
    <g
       id="g3881"
       style="font-size:40px;font-style:normal;font-weight:normal;line-height:125%;letter-spacing:0px;word-spacing:0px;fill:#000000;fill-opacity:1;stroke:none;font-family:Sans"
       transform="matrix(1.1160179,0,0,1.1160179,766.36281,-107.24284)" />
    <g
       id="g3889"
       style="font-size:40px;font-style:normal;font-weight:normal;line-height:125%;letter-spacing:0px;word-spacing:0px;fill:#000000;fill-opacity:1;stroke:none;font-family:Sans"
       transform="matrix(1.1160179,0,0,1.1160179,766.36281,-575.97034)" />
    <path
       id="path4172"
       style="fill:#ffffff;fill-opacity:0.47083333;fill-rule:evenodd;stroke:none;filter:url(#filter3963)"
       d="m 1142.8145,1351.0962 c 0,6.6178 -5.3648,11.9826 -11.9825,11.9826 -6.6178,0 -11.9826,-5.3648 -11.9826,-11.9826 0,-6.6178 5.3648,-11.9826 11.9826,-11.9826 6.6177,0 11.9825,5.3648 11.9825,11.9826 z m -31.14,0 c 0,6.6178 -5.3648,11.9826 -11.9825,11.9826 -6.6179,0 -11.9826,-5.3648 -11.9826,-11.9826 0,-6.6177 5.3647,-11.9825 11.9826,-11.9825 6.6177,0 11.9825,5.3648 11.9825,11.9825 z m -31.4814,0 c 0,6.6178 -5.3648,11.9826 -11.9826,11.9826 -6.6177,0 -11.9825,-5.3648 -11.9825,-11.9826 0,-6.6177 5.3648,-11.9825 11.9825,-11.9825 6.6178,0 11.9826,5.3648 11.9826,11.9825 z m -44.2943,-0.2061 c 0,7.9981 -6.4838,14.4819 -14.4819,14.4819 -7.9981,0 -14.4818,-6.4838 -14.4818,-14.4819 0,-7.9981 6.4837,-14.4819 14.4818,-14.4819 7.9981,0 14.4819,6.4838 14.4819,14.4819 z m 0,-54.1606 c 0,7.9982 -6.4838,14.4819 -14.4819,14.4819 -7.9981,0 -14.4818,-6.4837 -14.4818,-14.4819 0,-7.9981 6.4837,-14.4818 14.4818,-14.4818 7.9981,0 14.4819,6.4837 14.4819,14.4818 z m 0,-54.1583 c 0,7.9981 -6.4838,14.4819 -14.4819,14.4819 -7.9981,0 -14.4818,-6.4838 -14.4818,-14.4819 0,-7.9981 6.4837,-14.4819 14.4818,-14.4819 7.9981,0 14.4819,6.4838 14.4819,14.4819 z m 23.3295,64.192 0,-20 80.5317,0 0,20 -80.5317,0 m 0,-54.3863 0,-20 80.5317,0 0,20 -80.5317,10e-4 m 93.5717,146.3843 c 6.9326,1e-4 12.7992,-2.4 17.6,-7.2 5.3325,-4.7999 7.9992,-10.9333 8,-18.4 l 0,-153.6 c -8e-4,-6.9331 -2.6675,-12.7998 -8,-17.6 -4.8008,-5.3332 -10.6674,-7.9998 -17.6,-8 l -153.59999,0 c -7.46728,2e-4 -13.60065,2.6668 -18.40004,8 -4.80056,4.8002 -7.20062,10.6669 -7.19995,17.6 l 0,153.6 c -6.7e-4,7.4667 2.39939,13.6001 7.19995,18.4 4.79939,4.8 10.93276,7.2001 18.40004,7.2 l 153.59999,0 m -153.59999,25.6 c -14.40065,0 -26.66731,-4.7999 -36.8,-14.4 -9.60059,-10.1333 -14.40058,-22.4 -14.40001,-36.8 l 0,-153.6 c -5.7e-4,-13.8665 4.79942,-25.8665 14.40001,-36 10.13269,-10.1331 22.39935,-15.1997 36.8,-15.2 l 153.59999,0 c 13.8659,3e-4 25.8658,5.0669 36,15.2 10.1325,10.1335 15.1992,22.1335 15.2,36 l 0,153.6 c -8e-4,14.4 -5.0675,26.6667 -15.2,36.8 -10.1342,9.6001 -22.1341,14.4 -36,14.4 l -153.59999,0"
       inkscape:connector-curvature="0"
       transform="matrix(0.89285714,0,0,0.89285714,-832.71429,-233.10407)" />
    <path
       inkscape:connector-curvature="0"
       d="m 187.65583,973.23184 c 0,5.90874 -4.79004,10.69869 -10.69868,10.69869 -5.90874,0 -10.69879,-4.78995 -10.69879,-10.69869 0,-5.90874 4.79005,-10.6988 10.69879,-10.6988 5.90864,0 10.69868,4.79006 10.69868,10.6988 z m -27.80363,0 c 0,5.90874 -4.78994,10.69869 -10.69868,10.69869 -5.90875,0 -10.69869,-4.78995 -10.69869,-10.69869 0,-5.90863 4.78994,-10.69869 10.69869,-10.69869 5.90874,0 10.69868,4.79006 10.69868,10.69869 z m -28.10842,0 c 0,5.90874 -4.78993,10.69869 -10.69868,10.69869 -5.90863,0 -10.69868,-4.78995 -10.69868,-10.69869 0,-5.90863 4.79005,-10.69869 10.69868,-10.69869 5.90875,0 10.69868,4.79006 10.69868,10.69869 z m -39.548457,-0.18403 c 0,7.14116 -5.789109,12.93027 -12.93027,12.93027 -7.141116,0 -12.930134,-5.78911 -12.930134,-12.93027 0,-7.14116 5.789018,-12.93027 12.930134,-12.93027 7.141161,0 12.93027,5.78911 12.93027,12.93027 z m 0,-48.35763 c 0,7.14116 -5.789109,12.93027 -12.93027,12.93027 -7.141116,0 -12.930134,-5.78911 -12.930134,-12.93027 0,-7.14116 5.789018,-12.93026 12.930134,-12.93026 7.141161,0 12.93027,5.7891 12.93027,12.93026 z m 0,-48.35573 c 0,7.14116 -5.789109,12.93027 -12.93027,12.93027 -7.141116,0 -12.930134,-5.78911 -12.930134,-12.93027 0,-7.14115 5.789018,-12.93026 12.930134,-12.93026 7.141161,0 12.93027,5.78911 12.93027,12.93026 z m 20.829987,57.31433 0,-17.85715 71.90332,0 0,17.85715 -71.90332,0 m 0,-48.55918 0,-17.85715 71.90332,0 0,17.85715 -71.90332,8.9e-4 m 83.54615,130.70041 c 6.18976,1e-4 11.42777,-2.1429 15.71429,-6.4286 4.76114,-4.2857 7.14215,-9.76196 7.14282,-16.42864 l 0,-137.14294 c -6.7e-4,-6.1902 -2.38168,-11.42833 -7.14282,-15.71428 -4.28652,-4.7617 -9.52453,-7.14261 -15.71429,-7.14283 l -137.142869,0 c -6.667223,2.2e-4 -12.143445,2.38113 -16.42861,7.14283 -4.286214,4.28595 -6.429131,9.52408 -6.428529,15.71428 l 0,137.14294 c -6.02e-4,6.66668 2.142315,12.14294 6.428529,16.42864 4.285165,4.2857 9.761387,6.4287 16.42861,6.4286 l 137.142869,0 m -137.142869,22.857 c -12.857729,0 -23.810105,-4.2856 -32.857153,-12.8572 -8.571948,-9.0474 -12.857661,-19.9999 -12.857148,-32.85704 l 0,-137.14294 c -5.13e-4,-12.38074 4.2852,-23.09505 12.857148,-32.14281 9.047048,-9.04742 19.999424,-13.5712 32.857153,-13.57142 l 137.142869,0 c 12.38018,2.2e-4 23.09438,4.524 32.14282,13.57142 9.04686,9.04776 13.57074,19.76207 13.57141,32.14281 l 0,137.14294 c -6.7e-4,12.85714 -4.52455,23.80964 -13.57141,32.85704 -9.04844,8.5716 -19.76264,12.8572 -32.14282,12.8572 l -137.142869,0"
       style="fill:#000000;fill-opacity:1;fill-rule:evenodd;stroke:none"
       id="path4196" />
  </g>
</svg>
