<?xml version="1.0" encoding="UTF-8" standalone="no"?>
<!-- Created with Inkscape (http://www.inkscape.org/) -->

<svg
   xmlns:dc="http://purl.org/dc/elements/1.1/"
   xmlns:cc="http://creativecommons.org/ns#"
   xmlns:rdf="http://www.w3.org/1999/02/22-rdf-syntax-ns#"
   xmlns:svg="http://www.w3.org/2000/svg"
   xmlns="http://www.w3.org/2000/svg"
   xmlns:sodipodi="http://sodipodi.sourceforge.net/DTD/sodipodi-0.dtd"
   xmlns:inkscape="http://www.inkscape.org/namespaces/inkscape"
   width="24"
   height="24"
   id="svg2"
   version="1.1"
   inkscape:version="0.48.1 r9760"
   sodipodi:docname="cardapio-light32.svg"
   inkscape:export-filename="/home/jancborchardt/jancborchardt/Cardapio/cardapio-light32.png"
   inkscape:export-xdpi="90"
   inkscape:export-ydpi="90">
  <defs
     id="defs4">
    <filter
       inkscape:collect="always"
       id="filter3781"
       color-interpolation-filters="sRGB">
      <feGaussianBlur
         inkscape:collect="always"
         stdDeviation="6.4"
         id="feGaussianBlur3783" />
    </filter>
  </defs>
  <sodipodi:namedview
     id="base"
     pagecolor="#ffffff"
     bordercolor="#666666"
     borderopacity="1.0"
     inkscape:pageopacity="0.0"
     inkscape:pageshadow="2"
     inkscape:zoom="4.9497474"
     inkscape:cx="-2.3945432"
     inkscape:cy="-20.672459"
     inkscape:document-units="px"
     inkscape:current-layer="layer1"
     showgrid="false"
     inkscape:window-width="1280"
     inkscape:window-height="776"
     inkscape:window-x="0"
     inkscape:window-y="24"
     inkscape:window-maximized="1"
     showguides="true"
     inkscape:guide-bbox="true" />
  <metadata
     id="metadata7">
    <rdf:RDF>
      <cc:Work
         rdf:about="">
        <dc:format>image/svg+xml</dc:format>
        <dc:type
           rdf:resource="http://purl.org/dc/dcmitype/StillImage" />
        <dc:title></dc:title>
      </cc:Work>
    </rdf:RDF>
  </metadata>
  <g
     inkscape:label="Layer 1"
     inkscape:groupmode="layer"
     id="layer1"
     transform="translate(0,-1028.3622)">
    <g
       style="font-size:40px;font-style:normal;font-weight:normal;line-height:125%;letter-spacing:0px;word-spacing:0px;fill:#000000;fill-opacity:1;stroke:none;font-family:Sans"
       id="text2985"
       transform="matrix(0.75,0,0,0.75,-2.30002e-6,263.09054)" />
    <g
       transform="matrix(0.75,0,0,0.75,-2.30002e-6,-51.909441)"
       style="font-size:40px;font-style:normal;font-weight:normal;line-height:125%;letter-spacing:0px;word-spacing:0px;fill:#000000;fill-opacity:1;stroke:none;font-family:Sans"
       id="text2985-5" />
    <g
       id="g3881"
       style="font-size:40px;font-style:normal;font-weight:normal;line-height:125%;letter-spacing:0px;word-spacing:0px;fill:#000000;fill-opacity:1;stroke:none;font-family:Sans"
       transform="matrix(0.75,0,0,0.75,525,263.09054)" />
    <g
       id="g3889"
       style="font-size:40px;font-style:normal;font-weight:normal;line-height:125%;letter-spacing:0px;word-spacing:0px;fill:#000000;fill-opacity:1;stroke:none;font-family:Sans"
       transform="matrix(0.75,0,0,0.75,525,-51.909441)" />
    <path
       inkscape:connector-curvature="0"
       d="m 342.81452,1351.0962 c 0,6.6178 -5.36478,11.9826 -11.98255,11.9826 -6.61781,0 -11.98258,-5.3648 -11.98258,-11.9826 0,-6.6178 5.36477,-11.9826 11.98258,-11.9826 6.61777,0 11.98255,5.3648 11.98255,11.9826 z m -31.14002,0 c 0,6.6178 -5.36478,11.9826 -11.98255,11.9826 -6.61781,0 -11.98258,-5.3648 -11.98258,-11.9826 0,-6.6177 5.36477,-11.9825 11.98258,-11.9825 6.61777,0 11.98255,5.3648 11.98255,11.9825 z m -31.48138,0 c 0,6.6178 -5.36478,11.9826 -11.98259,11.9826 -6.61777,0 -11.98255,-5.3648 -11.98255,-11.9826 0,-6.6177 5.36478,-11.9825 11.98255,-11.9825 6.61781,0 11.98259,5.3648 11.98259,11.9825 z m -44.2943,-0.2061 c 0,7.9981 -6.48377,14.4819 -14.48188,14.4819 -7.99811,0 -14.48188,-6.4838 -14.48188,-14.4819 0,-7.9981 6.48377,-14.4819 14.48188,-14.4819 7.99811,0 14.48188,6.4838 14.48188,14.4819 z m 0,-54.1606 c 0,7.9982 -6.48377,14.4819 -14.48188,14.4819 -7.99811,0 -14.48188,-6.4837 -14.48188,-14.4819 0,-7.9981 6.48377,-14.4818 14.48188,-14.4818 7.99811,0 14.48188,6.4837 14.48188,14.4818 z m 0,-54.1583 c 0,7.9981 -6.48377,14.4819 -14.48188,14.4819 -7.99811,0 -14.48188,-6.4838 -14.48188,-14.4819 0,-7.9981 6.48377,-14.4819 14.48188,-14.4819 7.99811,0 14.48188,6.4838 14.48188,14.4819 z m 23.32944,64.192 0,-20 80.53177,0 0,20 -80.53177,0 m 0,-54.3863 0,-20 80.53177,0 0,20 -80.53177,10e-4 m 93.57173,146.3863 c 6.93257,10e-5 12.79922,-2.4 17.6,-7.2 5.33254,-4.7999 7.99919,-10.9333 8.00002,-18.4 l 0,-153.6 c -8.3e-4,-6.9331 -2.66748,-12.7998 -8.00002,-17.6 -4.80078,-5.3332 -10.66743,-7.9998 -17.6,-8 l -153.59998,0 c -7.46728,2e-4 -13.60065,2.6668 -18.40004,8 -4.80056,4.8002 -7.20062,10.6669 -7.19995,17.6 l 0,153.6 c -6.7e-4,7.4667 2.39939,13.6001 7.19995,18.4 4.79939,4.8 10.93276,7.2001 18.40004,7.2 l 153.59998,0 m -153.59998,25.6 c -14.40065,0 -26.66731,-4.7999 -36.8,-14.4 -9.60059,-10.1333 -14.40058,-22.4 -14.40001,-36.8 l 0,-153.6 c -5.7e-4,-13.8665 4.79942,-25.8665 14.40001,-36 10.13269,-10.1331 22.39935,-15.1997 36.8,-15.2 l 153.59998,0 c 13.86587,3e-4 25.86585,5.0669 35.99997,15.2 10.13253,10.1335 15.19921,22.1335 15.20004,36 l 0,153.6 c -8.3e-4,14.4 -5.06751,26.6667 -15.20004,36.8 -10.13412,9.6001 -22.1341,14.4 -35.99997,14.4 l -153.59998,0"
       style="fill:#000000;fill-opacity:0.35294118;fill-rule:evenodd;stroke:none;filter:url(#filter3781)"
       id="path4160"
       transform="matrix(0.07672991,0,0,0.07672991,-9.1774552,940.89229)" />
    <path
       id="path3135"
       style="fill:#ffffff;fill-opacity:1;fill-rule:evenodd;stroke:none"
       d="m 17.126672,1044.5618 c 0,0.5078 -0.411641,0.9194 -0.919416,0.9194 -0.507783,0 -0.919425,-0.4116 -0.919425,-0.9194 0,-0.5078 0.411642,-0.9195 0.919425,-0.9195 0.507775,0 0.919416,0.4117 0.919416,0.9195 z m -2.389369,0 c 0,0.5078 -0.411642,0.9194 -0.919416,0.9194 -0.507792,0 -0.919425,-0.4116 -0.919425,-0.9194 0,-0.5078 0.411633,-0.9195 0.919425,-0.9195 0.507774,0 0.919416,0.4117 0.919416,0.9195 z m -2.415565,0 c 0,0.5078 -0.411641,0.9194 -0.919424,0.9194 -0.507776,0 -0.919417,-0.4116 -0.919417,-0.9194 0,-0.5078 0.411641,-0.9195 0.919417,-0.9195 0.507783,0 0.919424,0.4117 0.919424,0.9195 z m -3.3986979,-0.016 c 0,0.6137 -0.4975011,1.1112 -1.111195,1.1112 -0.6136932,0 -1.1111875,-0.4975 -1.1111875,-1.1112 0,-0.6137 0.4974943,-1.1112 1.1111875,-1.1112 0.6136939,0 1.111195,0.4975 1.111195,1.1112 z m 0,-4.1558 c 0,0.6138 -0.4975011,1.1113 -1.111195,1.1113 -0.6136932,0 -1.1111875,-0.4975 -1.1111875,-1.1113 0,-0.6136 0.4974943,-1.1111 1.1111875,-1.1111 0.6136939,0 1.111195,0.4975 1.111195,1.1111 z m 0,-4.1555 c 0,0.6137 -0.4975011,1.1112 -1.111195,1.1112 -0.6136932,0 -1.1111875,-0.4975 -1.1111875,-1.1112 0,-0.6137 0.4974943,-1.1112 1.1111875,-1.1112 0.6136939,0 1.111195,0.4975 1.111195,1.1112 z m 1.7900689,4.9255 0,-1.5347 6.179192,0 0,1.5347 -6.179192,0 m 0,-4.1731 0,-1.5346 6.179192,0 0,1.5346 -6.179192,10e-5 m 7.179749,11.232 c 0.531939,0 0.982082,-0.1841 1.350447,-0.5525 0.409162,-0.3682 0.613778,-0.8388 0.61384,-1.4117 l 0,-11.7858 c -6.2e-5,-0.532 -0.204678,-0.9821 -0.61384,-1.3504 -0.368365,-0.4092 -0.818508,-0.6138 -1.350447,-0.6138 l -11.7857128,0 c -0.5729646,0 -1.0435772,0.2046 -1.4118336,0.6138 -0.3683466,0.3683 -0.5525036,0.8184 -0.5524517,1.3504 l 0,11.7858 c -5.19e-5,0.5729 0.1841051,1.0435 0.5524517,1.4117 0.3682564,0.3684 0.838869,0.5525 1.4118336,0.5525 l 11.7857128,0 m -11.7857128,1.9643 c -1.1049611,0 -2.0461809,-0.3682 -2.8236615,-1.1049 -0.7366519,-0.7775 -1.1049552,-1.7188 -1.1049111,-2.8236 l 0,-11.7858 c -4.41e-5,-1.064 0.3682592,-1.9847 1.1049111,-2.7622 0.7774806,-0.7776 1.7187004,-1.1663 2.8236615,-1.1663 l 11.7857128,0 c 1.06393,0 1.984682,0.3887 2.762277,1.1663 0.777467,0.7775 1.166234,1.6982 1.166295,2.7622 l 0,11.7858 c -6.1e-5,1.1048 -0.388828,2.0461 -1.166295,2.8236 -0.777595,0.7367 -1.698347,1.1049 -2.762277,1.1049 l -11.7857128,0"
       inkscape:connector-curvature="0" />
  </g>
</svg>
