<?xml version="1.0" encoding="UTF-8" standalone="no"?>
<!-- Created with Inkscape (http://www.inkscape.org/) -->

<svg
   xmlns:dc="http://purl.org/dc/elements/1.1/"
   xmlns:cc="http://creativecommons.org/ns#"
   xmlns:rdf="http://www.w3.org/1999/02/22-rdf-syntax-ns#"
   xmlns:svg="http://www.w3.org/2000/svg"
   xmlns="http://www.w3.org/2000/svg"
   xmlns:sodipodi="http://sodipodi.sourceforge.net/DTD/sodipodi-0.dtd"
   xmlns:inkscape="http://www.inkscape.org/namespaces/inkscape"
   width="32"
   height="32"
   id="svg2"
   version="1.1"
   inkscape:version="0.48.1 r9760"
   sodipodi:docname="cardapio-dark48.svg"
   inkscape:export-filename="/home/jancborchardt/jancborchardt/Cardapio/cardapio-dark48.png"
   inkscape:export-xdpi="90"
   inkscape:export-ydpi="90">
  <defs
     id="defs4">
    <filter
       inkscape:collect="always"
       id="filter3963"
       color-interpolation-filters="sRGB">
      <feGaussianBlur
         inkscape:collect="always"
         stdDeviation="6.4"
         id="feGaussianBlur3965" />
    </filter>
  </defs>
  <sodipodi:namedview
     id="base"
     pagecolor="#ffffff"
     bordercolor="#666666"
     borderopacity="1.0"
     inkscape:pageopacity="0.0"
     inkscape:pageshadow="2"
     inkscape:zoom="0.61871843"
     inkscape:cx="283.82552"
     inkscape:cy="-91.16025"
     inkscape:document-units="px"
     inkscape:current-layer="layer1"
     showgrid="false"
     inkscape:window-width="1280"
     inkscape:window-height="776"
     inkscape:window-x="0"
     inkscape:window-y="24"
     inkscape:window-maximized="1"
     showguides="true"
     inkscape:guide-bbox="true" />
  <metadata
     id="metadata7">
    <rdf:RDF>
      <cc:Work
         rdf:about="">
        <dc:format>image/svg+xml</dc:format>
        <dc:type
           rdf:resource="http://purl.org/dc/dcmitype/StillImage" />
        <dc:title></dc:title>
      </cc:Work>
    </rdf:RDF>
  </metadata>
  <g
     inkscape:label="Layer 1"
     inkscape:groupmode="layer"
     id="layer1"
     transform="translate(0,-1020.3622)">
    <g
       style="font-size:40px;font-style:normal;font-weight:normal;line-height:125%;letter-spacing:0px;word-spacing:0px;fill:#000000;fill-opacity:1;stroke:none;font-family:Sans"
       id="text2985"
       transform="matrix(1.1160179,0,0,1.1160179,-14.849729,-107.24284)" />
    <g
       transform="matrix(1.1160179,0,0,1.1160179,-14.849729,-575.97034)"
       style="font-size:40px;font-style:normal;font-weight:normal;line-height:125%;letter-spacing:0px;word-spacing:0px;fill:#000000;fill-opacity:1;stroke:none;font-family:Sans"
       id="text2985-5" />
    <g
       id="g3881"
       style="font-size:40px;font-style:normal;font-weight:normal;line-height:125%;letter-spacing:0px;word-spacing:0px;fill:#000000;fill-opacity:1;stroke:none;font-family:Sans"
       transform="matrix(1.1160179,0,0,1.1160179,766.36281,-107.24284)" />
    <g
       id="g3889"
       style="font-size:40px;font-style:normal;font-weight:normal;line-height:125%;letter-spacing:0px;word-spacing:0px;fill:#000000;fill-opacity:1;stroke:none;font-family:Sans"
       transform="matrix(1.1160179,0,0,1.1160179,766.36281,-575.97034)" />
    <path
       id="path4172"
       style="fill:#ffffff;fill-opacity:0.47083333;fill-rule:evenodd;stroke:none;filter:url(#filter3963)"
       d="m 1142.8145,1351.0962 c 0,6.6178 -5.3648,11.9826 -11.9825,11.9826 -6.6178,0 -11.9826,-5.3648 -11.9826,-11.9826 0,-6.6178 5.3648,-11.9826 11.9826,-11.9826 6.6177,0 11.9825,5.3648 11.9825,11.9826 z m -31.14,0 c 0,6.6178 -5.3648,11.9826 -11.9825,11.9826 -6.6179,0 -11.9826,-5.3648 -11.9826,-11.9826 0,-6.6177 5.3647,-11.9825 11.9826,-11.9825 6.6177,0 11.9825,5.3648 11.9825,11.9825 z m -31.4814,0 c 0,6.6178 -5.3648,11.9826 -11.9826,11.9826 -6.6177,0 -11.9825,-5.3648 -11.9825,-11.9826 0,-6.6177 5.3648,-11.9825 11.9825,-11.9825 6.6178,0 11.9826,5.3648 11.9826,11.9825 z m -44.2943,-0.2061 c 0,7.9981 -6.4838,14.4819 -14.4819,14.4819 -7.9981,0 -14.4818,-6.4838 -14.4818,-14.4819 0,-7.9981 6.4837,-14.4819 14.4818,-14.4819 7.9981,0 14.4819,6.4838 14.4819,14.4819 z m 0,-54.1606 c 0,7.9982 -6.4838,14.4819 -14.4819,14.4819 -7.9981,0 -14.4818,-6.4837 -14.4818,-14.4819 0,-7.9981 6.4837,-14.4818 14.4818,-14.4818 7.9981,0 14.4819,6.4837 14.4819,14.4818 z m 0,-54.1583 c 0,7.9981 -6.4838,14.4819 -14.4819,14.4819 -7.9981,0 -14.4818,-6.4838 -14.4818,-14.4819 0,-7.9981 6.4837,-14.4819 14.4818,-14.4819 7.9981,0 14.4819,6.4838 14.4819,14.4819 z m 23.3295,64.192 0,-20 80.5317,0 0,20 -80.5317,0 m 0,-54.3863 0,-20 80.5317,0 0,20 -80.5317,10e-4 m 93.5717,146.3843 c 6.9326,1e-4 12.7992,-2.4 17.6,-7.2 5.3325,-4.7999 7.9992,-10.9333 8,-18.4 l 0,-153.6 c -8e-4,-6.9331 -2.6675,-12.7998 -8,-17.6 -4.8008,-5.3332 -10.6674,-7.9998 -17.6,-8 l -153.59999,0 c -7.46728,2e-4 -13.60065,2.6668 -18.40004,8 -4.80056,4.8002 -7.20062,10.6669 -7.19995,17.6 l 0,153.6 c -6.7e-4,7.4667 2.39939,13.6001 7.19995,18.4 4.79939,4.8 10.93276,7.2001 18.40004,7.2 l 153.59999,0 m -153.59999,25.6 c -14.40065,0 -26.66731,-4.7999 -36.8,-14.4 -9.60059,-10.1333 -14.40058,-22.4 -14.40001,-36.8 l 0,-153.6 c -5.7e-4,-13.8665 4.79942,-25.8665 14.40001,-36 10.13269,-10.1331 22.39935,-15.1997 36.8,-15.2 l 153.59999,0 c 13.8659,3e-4 25.8658,5.0669 36,15.2 10.1325,10.1335 15.1992,22.1335 15.2,36 l 0,153.6 c -8e-4,14.4 -5.0675,26.6667 -15.2,36.8 -10.1342,9.6001 -22.1341,14.4 -36,14.4 l -153.59999,0"
       inkscape:connector-curvature="0"
       transform="matrix(0.11160714,0,0,0.11160714,-104.08928,891.67889)" />
    <path
       inkscape:connector-curvature="0"
       d="m 23.456982,1042.4709 c 0,0.7386 -0.598755,1.3374 -1.337335,1.3374 -0.738592,0 -1.337348,-0.5988 -1.337348,-1.3374 0,-0.7386 0.598756,-1.3374 1.337348,-1.3374 0.73858,0 1.337335,0.5988 1.337335,1.3374 z m -3.475453,0 c 0,0.7386 -0.598743,1.3374 -1.337336,1.3374 -0.738594,0 -1.337336,-0.5988 -1.337336,-1.3374 0,-0.7386 0.598742,-1.3374 1.337336,-1.3374 0.738593,0 1.337336,0.5988 1.337336,1.3374 z m -3.513553,0 c 0,0.7386 -0.598741,1.3374 -1.337335,1.3374 -0.738579,0 -1.337335,-0.5988 -1.337335,-1.3374 0,-0.7386 0.598756,-1.3374 1.337335,-1.3374 0.738594,0 1.337335,0.5988 1.337335,1.3374 z m -4.943557,-0.023 c 0,0.8927 -0.723639,1.6163 -1.6162839,1.6163 -0.8926394,0 -1.6162667,-0.7236 -1.6162667,-1.6163 0,-0.8926 0.7236273,-1.6163 1.6162667,-1.6163 0.8926449,0 1.6162839,0.7237 1.6162839,1.6163 z m 0,-6.0447 c 0,0.8927 -0.723639,1.6163 -1.6162839,1.6163 -0.8926394,0 -1.6162667,-0.7236 -1.6162667,-1.6163 0,-0.8926 0.7236273,-1.6163 1.6162667,-1.6163 0.8926449,0 1.6162839,0.7237 1.6162839,1.6163 z m 0,-6.0445 c 0,0.8927 -0.723639,1.6163 -1.6162839,1.6163 -0.8926394,0 -1.6162667,-0.7236 -1.6162667,-1.6163 0,-0.8926 0.7236273,-1.6162 1.6162667,-1.6162 0.8926449,0 1.6162839,0.7236 1.6162839,1.6162 z m 2.603748,7.1643 0,-2.2321 8.987915,0 0,2.2321 -8.987915,0 m 0,-6.0699 0,-2.2321 8.987915,0 0,2.2321 -8.987915,2e-4 m 10.443269,16.3375 c 0.77372,0 1.428471,-0.2679 1.964286,-0.8036 0.595142,-0.5357 0.892769,-1.2202 0.892852,-2.0536 l 0,-17.1428 c -8.3e-5,-0.7738 -0.29771,-1.4286 -0.892852,-1.9643 -0.535815,-0.5952 -1.190566,-0.8928 -1.964286,-0.8929 l -17.1428583,0 c -0.8334033,10e-5 -1.5179312,0.2977 -2.0535768,0.8929 -0.5357767,0.5357 -0.8036413,1.1905 -0.8035661,1.9643 l 0,17.1428 c -7.52e-5,0.8334 0.2677894,1.5179 0.8035661,2.0536 0.5356456,0.5357 1.2201735,0.8036 2.0535768,0.8036 l 17.1428583,0 m -17.1428583,2.8571 c -1.6072168,0 -2.9762636,-0.5357 -4.1071446,-1.6071 -1.0714935,-1.1309 -1.6072076,-2.5 -1.6071435,-4.1072 l 0,-17.1428 c -6.41e-5,-1.5476 0.53565,-2.8869 1.6071435,-4.0178 1.130881,-1.131 2.4999278,-1.6964 4.1071446,-1.6965 l 17.1428583,0 c 1.547523,10e-5 2.886797,0.5655 4.017852,1.6965 1.130858,1.1309 1.696343,2.4702 1.696426,4.0178 l 0,17.1428 c -8.3e-5,1.6072 -0.565568,2.9763 -1.696426,4.1072 -1.131055,1.0714 -2.470329,1.6071 -4.017852,1.6071 l -17.1428583,0"
       style="fill:#000000;fill-opacity:1;fill-rule:evenodd;stroke:none"
       id="path4196" />
  </g>
</svg>
