<?xml version="1.0" encoding="UTF-8" standalone="no"?>
<!-- Created with Inkscape (http://www.inkscape.org/) -->

<svg
   xmlns:dc="http://purl.org/dc/elements/1.1/"
   xmlns:cc="http://creativecommons.org/ns#"
   xmlns:rdf="http://www.w3.org/1999/02/22-rdf-syntax-ns#"
   xmlns:svg="http://www.w3.org/2000/svg"
   xmlns="http://www.w3.org/2000/svg"
   xmlns:sodipodi="http://sodipodi.sourceforge.net/DTD/sodipodi-0.dtd"
   xmlns:inkscape="http://www.inkscape.org/namespaces/inkscape"
   width="48"
   height="48"
   id="svg2"
   version="1.1"
   inkscape:version="0.48.1 r9760"
   sodipodi:docname="cardapio-light64.svg"
   inkscape:export-filename="/home/jancborchardt/jancborchardt/Cardapio/cardapio-light64.png"
   inkscape:export-xdpi="90"
   inkscape:export-ydpi="90">
  <defs
     id="defs4">
    <filter
       inkscape:collect="always"
       id="filter3781"
       color-interpolation-filters="sRGB">
      <feGaussianBlur
         inkscape:collect="always"
         stdDeviation="6.4"
         id="feGaussianBlur3783" />
    </filter>
  </defs>
  <sodipodi:namedview
     id="base"
     pagecolor="#ffffff"
     bordercolor="#666666"
     borderopacity="1.0"
     inkscape:pageopacity="0.0"
     inkscape:pageshadow="2"
     inkscape:zoom="0.61871843"
     inkscape:cx="82.603127"
     inkscape:cy="-91.16025"
     inkscape:document-units="px"
     inkscape:current-layer="layer1"
     showgrid="false"
     inkscape:window-width="1280"
     inkscape:window-height="776"
     inkscape:window-x="0"
     inkscape:window-y="24"
     inkscape:window-maximized="1"
     showguides="true"
     inkscape:guide-bbox="true" />
  <metadata
     id="metadata7">
    <rdf:RDF>
      <cc:Work
         rdf:about="">
        <dc:format>image/svg+xml</dc:format>
        <dc:type
           rdf:resource="http://purl.org/dc/dcmitype/StillImage" />
        <dc:title></dc:title>
      </cc:Work>
    </rdf:RDF>
  </metadata>
  <g
     inkscape:label="Layer 1"
     inkscape:groupmode="layer"
     id="layer1"
     transform="translate(0,-1004.3622)">
    <g
       style="font-size:40px;font-style:normal;font-weight:normal;line-height:125%;letter-spacing:0px;word-spacing:0px;fill:#000000;fill-opacity:1;stroke:none;font-family:Sans"
       id="text2985"
       transform="matrix(0.75,0,0,0.75,-2.30002e-6,263.09054)" />
    <g
       transform="matrix(0.75,0,0,0.75,-2.30002e-6,-51.909441)"
       style="font-size:40px;font-style:normal;font-weight:normal;line-height:125%;letter-spacing:0px;word-spacing:0px;fill:#000000;fill-opacity:1;stroke:none;font-family:Sans"
       id="text2985-5" />
    <g
       id="g3881"
       style="font-size:40px;font-style:normal;font-weight:normal;line-height:125%;letter-spacing:0px;word-spacing:0px;fill:#000000;fill-opacity:1;stroke:none;font-family:Sans"
       transform="matrix(0.75,0,0,0.75,525,263.09054)" />
    <g
       id="g3889"
       style="font-size:40px;font-style:normal;font-weight:normal;line-height:125%;letter-spacing:0px;word-spacing:0px;fill:#000000;fill-opacity:1;stroke:none;font-family:Sans"
       transform="matrix(0.75,0,0,0.75,525,-51.909441)" />
    <path
       inkscape:connector-curvature="0"
       d="m 342.81452,1351.0962 c 0,6.6178 -5.36478,11.9826 -11.98255,11.9826 -6.61781,0 -11.98258,-5.3648 -11.98258,-11.9826 0,-6.6178 5.36477,-11.9826 11.98258,-11.9826 6.61777,0 11.98255,5.3648 11.98255,11.9826 z m -31.14002,0 c 0,6.6178 -5.36478,11.9826 -11.98255,11.9826 -6.61781,0 -11.98258,-5.3648 -11.98258,-11.9826 0,-6.6177 5.36477,-11.9825 11.98258,-11.9825 6.61777,0 11.98255,5.3648 11.98255,11.9825 z m -31.48138,0 c 0,6.6178 -5.36478,11.9826 -11.98259,11.9826 -6.61777,0 -11.98255,-5.3648 -11.98255,-11.9826 0,-6.6177 5.36478,-11.9825 11.98255,-11.9825 6.61781,0 11.98259,5.3648 11.98259,11.9825 z m -44.2943,-0.2061 c 0,7.9981 -6.48377,14.4819 -14.48188,14.4819 -7.99811,0 -14.48188,-6.4838 -14.48188,-14.4819 0,-7.9981 6.48377,-14.4819 14.48188,-14.4819 7.99811,0 14.48188,6.4838 14.48188,14.4819 z m 0,-54.1606 c 0,7.9982 -6.48377,14.4819 -14.48188,14.4819 -7.99811,0 -14.48188,-6.4837 -14.48188,-14.4819 0,-7.9981 6.48377,-14.4818 14.48188,-14.4818 7.99811,0 14.48188,6.4837 14.48188,14.4818 z m 0,-54.1583 c 0,7.9981 -6.48377,14.4819 -14.48188,14.4819 -7.99811,0 -14.48188,-6.4838 -14.48188,-14.4819 0,-7.9981 6.48377,-14.4819 14.48188,-14.4819 7.99811,0 14.48188,6.4838 14.48188,14.4819 z m 23.32944,64.192 0,-20 80.53177,0 0,20 -80.53177,0 m 0,-54.3863 0,-20 80.53177,0 0,20 -80.53177,10e-4 m 93.57173,146.3863 c 6.93257,10e-5 12.79922,-2.4 17.6,-7.2 5.33254,-4.7999 7.99919,-10.9333 8.00002,-18.4 l 0,-153.6 c -8.3e-4,-6.9331 -2.66748,-12.7998 -8.00002,-17.6 -4.80078,-5.3332 -10.66743,-7.9998 -17.6,-8 l -153.59998,0 c -7.46728,2e-4 -13.60065,2.6668 -18.40004,8 -4.80056,4.8002 -7.20062,10.6669 -7.19995,17.6 l 0,153.6 c -6.7e-4,7.4667 2.39939,13.6001 7.19995,18.4 4.79939,4.8 10.93276,7.2001 18.40004,7.2 l 153.59998,0 m -153.59998,25.6 c -14.40065,0 -26.66731,-4.7999 -36.8,-14.4 -9.60059,-10.1333 -14.40058,-22.4 -14.40001,-36.8 l 0,-153.6 c -5.7e-4,-13.8665 4.79942,-25.8665 14.40001,-36 10.13269,-10.1331 22.39935,-15.1997 36.8,-15.2 l 153.59998,0 c 13.86587,3e-4 25.86585,5.0669 35.99997,15.2 10.13253,10.1335 15.19921,22.1335 15.20004,36 l 0,153.6 c -8.3e-4,14.4 -5.06751,26.6667 -15.20004,36.8 -10.13412,9.6001 -22.1341,14.4 -35.99997,14.4 l -153.59998,0"
       style="fill:#000000;fill-opacity:0.35294118;fill-rule:evenodd;stroke:none;filter:url(#filter3781)"
       id="path4160"
       transform="matrix(0.16741071,0,0,0.16741071,-22.205365,811.33694)" />
    <path
       id="path3135"
       style="fill:#ffffff;fill-opacity:1;fill-rule:evenodd;stroke:none"
       d="m 35.185455,1037.5249 c 0,1.1079 -0.898125,2.006 -2.005999,2.006 -1.10789,0 -2.006018,-0.8981 -2.006018,-2.006 0,-1.1079 0.898128,-2.006 2.006018,-2.006 1.107874,0 2.005999,0.8981 2.005999,2.006 z m -5.213169,0 c 0,1.1079 -0.898128,2.006 -2.005997,2.006 -1.107911,0 -2.006018,-0.8981 -2.006018,-2.006 0,-1.1079 0.898107,-2.006 2.006018,-2.006 1.107869,0 2.005997,0.8981 2.005997,2.006 z m -5.270323,0 c 0,1.1079 -0.898127,2.006 -2.006016,2.006 -1.107875,0 -2.005999,-0.8981 -2.005999,-2.006 0,-1.1079 0.898124,-2.006 2.005999,-2.006 1.107889,0 2.006016,0.8981 2.006016,2.006 z m -7.41534,-0.034 c 0,1.339 -1.085457,2.4245 -2.424425,2.4245 -1.338967,0 -2.424409,-1.0855 -2.424409,-2.4245 0,-1.3389 1.085442,-2.4243 2.424409,-2.4243 1.338968,0 2.424425,1.0854 2.424425,2.4243 z m 0,-9.067 c 0,1.339 -1.085457,2.4244 -2.424425,2.4244 -1.338967,0 -2.424409,-1.0854 -2.424409,-2.4244 0,-1.3389 1.085442,-2.4244 2.424409,-2.4244 1.338968,0 2.424425,1.0855 2.424425,2.4244 z m 0,-9.0667 c 0,1.339 -1.085457,2.4245 -2.424425,2.4245 -1.338967,0 -2.424409,-1.0855 -2.424409,-2.4245 0,-1.339 1.085442,-2.4244 2.424409,-2.4244 1.338968,0 2.424425,1.0854 2.424425,2.4244 z m 3.905606,10.7465 0,-3.3483 13.481872,0 0,3.3483 -13.481872,0 m 0,-9.1049 0,-3.3482 13.481872,0 0,3.3482 -13.481872,2e-4 m 15.664904,24.5063 c 1.160595,0 2.142725,-0.4018 2.94643,-1.2054 0.892717,-0.8036 1.339153,-1.8303 1.339288,-3.0803 l 0,-25.7143 c -1.35e-4,-1.1607 -0.446571,-2.1428 -1.339288,-2.9464 -0.803705,-0.8929 -1.785835,-1.3393 -2.94643,-1.3393 l -25.71428,0 c -1.2501046,0 -2.2768958,0.4464 -3.0803641,1.3393 -0.8036654,0.8036 -1.2054624,1.7857 -1.2053491,2.9464 l 0,25.7143 c -1.133e-4,1.25 0.4016837,2.2767 1.2053491,3.0803 0.8034683,0.8036 1.8302595,1.2054 3.0803641,1.2054 l 25.71428,0 m -25.71428,4.2857 c -2.4108241,0 -4.4643945,-0.8035 -6.1607159,-2.4107 -1.6072403,-1.6964 -2.4108112,-3.75 -2.4107149,-6.1607 l 0,-25.7143 c -9.63e-5,-2.3214 0.8034746,-4.3303 2.4107149,-6.0268 1.6963214,-1.6964 3.7498918,-2.5446 6.1607159,-2.5446 l 25.71428,0 c 2.321303,0 4.330215,0.8482 6.026787,2.5446 1.69629,1.6965 2.54451,3.7054 2.544643,6.0268 l 0,25.7143 c -1.33e-4,2.4107 -0.848353,4.4643 -2.544643,6.1607 -1.696572,1.6072 -3.705484,2.4107 -6.026787,2.4107 l -25.71428,0"
       inkscape:connector-curvature="0" />
  </g>
</svg>
