<?xml version="1.0" encoding="UTF-8" standalone="no"?>
<!-- Created with Inkscape (http://www.inkscape.org/) -->

<svg
   xmlns:dc="http://purl.org/dc/elements/1.1/"
   xmlns:cc="http://creativecommons.org/ns#"
   xmlns:rdf="http://www.w3.org/1999/02/22-rdf-syntax-ns#"
   xmlns:svg="http://www.w3.org/2000/svg"
   xmlns="http://www.w3.org/2000/svg"
   xmlns:sodipodi="http://sodipodi.sourceforge.net/DTD/sodipodi-0.dtd"
   xmlns:inkscape="http://www.inkscape.org/namespaces/inkscape"
   width="24"
   height="24"
   id="svg2"
   version="1.1"
   inkscape:version="0.48.1 r9760"
   sodipodi:docname="cardapio-dark32.svg"
   inkscape:export-filename="/home/jancborchardt/jancborchardt/Cardapio/cardapio-dark32.png"
   inkscape:export-xdpi="90"
   inkscape:export-ydpi="90">
  <defs
     id="defs4">
    <filter
       inkscape:collect="always"
       id="filter3963"
       color-interpolation-filters="sRGB">
      <feGaussianBlur
         inkscape:collect="always"
         stdDeviation="6.4"
         id="feGaussianBlur3965" />
    </filter>
  </defs>
  <sodipodi:namedview
     id="base"
     pagecolor="#ffffff"
     bordercolor="#666666"
     borderopacity="1.0"
     inkscape:pageopacity="0.0"
     inkscape:pageshadow="2"
     inkscape:zoom="1.2374369"
     inkscape:cx="29.178395"
     inkscape:cy="106.07916"
     inkscape:document-units="px"
     inkscape:current-layer="layer1"
     showgrid="false"
     inkscape:window-width="1280"
     inkscape:window-height="776"
     inkscape:window-x="0"
     inkscape:window-y="24"
     inkscape:window-maximized="1"
     showguides="true"
     inkscape:guide-bbox="true" />
  <metadata
     id="metadata7">
    <rdf:RDF>
      <cc:Work
         rdf:about="">
        <dc:format>image/svg+xml</dc:format>
        <dc:type
           rdf:resource="http://purl.org/dc/dcmitype/StillImage" />
        <dc:title></dc:title>
      </cc:Work>
    </rdf:RDF>
  </metadata>
  <g
     inkscape:label="Layer 1"
     inkscape:groupmode="layer"
     id="layer1"
     transform="translate(0,-1028.3622)">
    <g
       style="font-size:40px;font-style:normal;font-weight:normal;line-height:125%;letter-spacing:0px;word-spacing:0px;fill:#000000;fill-opacity:1;stroke:none;font-family:Sans"
       id="text2985"
       transform="matrix(1.1160179,0,0,1.1160179,-14.849729,-107.24284)" />
    <g
       transform="matrix(1.1160179,0,0,1.1160179,-14.849729,-575.97034)"
       style="font-size:40px;font-style:normal;font-weight:normal;line-height:125%;letter-spacing:0px;word-spacing:0px;fill:#000000;fill-opacity:1;stroke:none;font-family:Sans"
       id="text2985-5" />
    <g
       id="g3881"
       style="font-size:40px;font-style:normal;font-weight:normal;line-height:125%;letter-spacing:0px;word-spacing:0px;fill:#000000;fill-opacity:1;stroke:none;font-family:Sans"
       transform="matrix(1.1160179,0,0,1.1160179,766.36281,-107.24284)" />
    <g
       id="g3889"
       style="font-size:40px;font-style:normal;font-weight:normal;line-height:125%;letter-spacing:0px;word-spacing:0px;fill:#000000;fill-opacity:1;stroke:none;font-family:Sans"
       transform="matrix(1.1160179,0,0,1.1160179,766.36281,-575.97034)" />
    <path
       id="path4172"
       style="fill:#ffffff;fill-opacity:0.47083333;fill-rule:evenodd;stroke:none;filter:url(#filter3963)"
       d="m 1142.8145,1351.0962 c 0,6.6178 -5.3648,11.9826 -11.9825,11.9826 -6.6178,0 -11.9826,-5.3648 -11.9826,-11.9826 0,-6.6178 5.3648,-11.9826 11.9826,-11.9826 6.6177,0 11.9825,5.3648 11.9825,11.9826 z m -31.14,0 c 0,6.6178 -5.3648,11.9826 -11.9825,11.9826 -6.6179,0 -11.9826,-5.3648 -11.9826,-11.9826 0,-6.6177 5.3647,-11.9825 11.9826,-11.9825 6.6177,0 11.9825,5.3648 11.9825,11.9825 z m -31.4814,0 c 0,6.6178 -5.3648,11.9826 -11.9826,11.9826 -6.6177,0 -11.9825,-5.3648 -11.9825,-11.9826 0,-6.6177 5.3648,-11.9825 11.9825,-11.9825 6.6178,0 11.9826,5.3648 11.9826,11.9825 z m -44.2943,-0.2061 c 0,7.9981 -6.4838,14.4819 -14.4819,14.4819 -7.9981,0 -14.4818,-6.4838 -14.4818,-14.4819 0,-7.9981 6.4837,-14.4819 14.4818,-14.4819 7.9981,0 14.4819,6.4838 14.4819,14.4819 z m 0,-54.1606 c 0,7.9982 -6.4838,14.4819 -14.4819,14.4819 -7.9981,0 -14.4818,-6.4837 -14.4818,-14.4819 0,-7.9981 6.4837,-14.4818 14.4818,-14.4818 7.9981,0 14.4819,6.4837 14.4819,14.4818 z m 0,-54.1583 c 0,7.9981 -6.4838,14.4819 -14.4819,14.4819 -7.9981,0 -14.4818,-6.4838 -14.4818,-14.4819 0,-7.9981 6.4837,-14.4819 14.4818,-14.4819 7.9981,0 14.4819,6.4838 14.4819,14.4819 z m 23.3295,64.192 0,-20 80.5317,0 0,20 -80.5317,0 m 0,-54.3863 0,-20 80.5317,0 0,20 -80.5317,10e-4 m 93.5717,146.3843 c 6.9326,1e-4 12.7992,-2.4 17.6,-7.2 5.3325,-4.7999 7.9992,-10.9333 8,-18.4 l 0,-153.6 c -8e-4,-6.9331 -2.6675,-12.7998 -8,-17.6 -4.8008,-5.3332 -10.6674,-7.9998 -17.6,-8 l -153.59999,0 c -7.46728,2e-4 -13.60065,2.6668 -18.40004,8 -4.80056,4.8002 -7.20062,10.6669 -7.19995,17.6 l 0,153.6 c -6.7e-4,7.4667 2.39939,13.6001 7.19995,18.4 4.79939,4.8 10.93276,7.2001 18.40004,7.2 l 153.59999,0 m -153.59999,25.6 c -14.40065,0 -26.66731,-4.7999 -36.8,-14.4 -9.60059,-10.1333 -14.40058,-22.4 -14.40001,-36.8 l 0,-153.6 c -5.7e-4,-13.8665 4.79942,-25.8665 14.40001,-36 10.13269,-10.1331 22.39935,-15.1997 36.8,-15.2 l 153.59999,0 c 13.8659,3e-4 25.8658,5.0669 36,15.2 10.1325,10.1335 15.1992,22.1335 15.2,36 l 0,153.6 c -8e-4,14.4 -5.0675,26.6667 -15.2,36.8 -10.1342,9.6001 -22.1341,14.4 -36,14.4 l -153.59999,0"
       inkscape:connector-curvature="0"
       transform="matrix(0.07672991,0,0,0.07672991,-70.561383,940.89245)" />
    <path
       inkscape:connector-curvature="0"
       d="m 17.126674,1044.5619 c 0,0.5078 -0.411644,0.9195 -0.919417,0.9195 -0.507782,0 -0.919427,-0.4117 -0.919427,-0.9195 0,-0.5078 0.411645,-0.9194 0.919427,-0.9194 0.507773,0 0.919417,0.4116 0.919417,0.9194 z m -2.389374,0 c 0,0.5078 -0.411635,0.9195 -0.919418,0.9195 -0.507783,0 -0.919419,-0.4117 -0.919419,-0.9195 0,-0.5078 0.411636,-0.9194 0.919419,-0.9194 0.507783,0 0.919418,0.4116 0.919418,0.9194 z m -2.415567,0 c 0,0.5078 -0.411635,0.9195 -0.919418,0.9195 -0.507773,0 -0.919418,-0.4117 -0.919418,-0.9195 0,-0.5078 0.411645,-0.9194 0.919418,-0.9194 0.507783,0 0.919418,0.4116 0.919418,0.9194 z m -3.398696,-0.016 c 0,0.6137 -0.4975018,1.1112 -1.1111952,1.1112 -0.6136896,0 -1.1111834,-0.4975 -1.1111834,-1.1112 0,-0.6137 0.4974938,-1.1112 1.1111834,-1.1112 0.6136934,0 1.1111952,0.4975 1.1111952,1.1112 z m 0,-4.1557 c 0,0.6137 -0.4975018,1.1112 -1.1111952,1.1112 -0.6136896,0 -1.1111834,-0.4975 -1.1111834,-1.1112 0,-0.6137 0.4974938,-1.1112 1.1111834,-1.1112 0.6136934,0 1.1111952,0.4975 1.1111952,1.1112 z m 0,-4.1556 c 0,0.6137 -0.4975018,1.1112 -1.1111952,1.1112 -0.6136896,0 -1.1111834,-0.4975 -1.1111834,-1.1112 0,-0.6137 0.4974938,-1.1112 1.1111834,-1.1112 0.6136934,0 1.1111952,0.4975 1.1111952,1.1112 z m 1.790077,4.9254 0,-1.5345 6.179192,0 0,1.5345 -6.179192,0 m 0,-4.173 0,-1.5346 6.179192,0 0,1.5346 -6.179192,10e-5 m 7.179748,11.2321 c 0.531932,0 0.982073,-0.1842 1.350446,-0.5525 0.40916,-0.3683 0.613779,-0.8389 0.613836,-1.4119 l 0,-11.7856 c -5.7e-5,-0.532 -0.204676,-0.9822 -0.613836,-1.3505 -0.368373,-0.4092 -0.818514,-0.6138 -1.350446,-0.6139 l -11.785716,0 c -0.5729647,10e-5 -1.0435777,0.2047 -1.411834,0.6139 -0.3683465,0.3683 -0.5525035,0.8185 -0.5524518,1.3505 l 0,11.7856 c -5.17e-5,0.573 0.1841053,1.0436 0.5524518,1.4119 0.3682563,0.3683 0.8388693,0.5525 1.411834,0.5525 l 11.785716,0 m -11.785716,1.9642 c -1.1049615,0 -2.0461812,-0.3683 -2.8236619,-1.1049 -0.7366518,-0.7775 -1.1049553,-1.7187 -1.1049112,-2.8237 l 0,-11.7856 c -4.41e-5,-1.064 0.3682594,-1.9848 1.1049112,-2.7623 0.7774807,-0.7775 1.7187004,-1.1663 2.8236619,-1.1663 l 11.785716,0 c 1.063922,0 1.984673,0.3888 2.762273,1.1663 0.777465,0.7775 1.166236,1.6983 1.166293,2.7623 l 0,11.7856 c -5.7e-5,1.105 -0.388828,2.0462 -1.166293,2.8237 -0.7776,0.7366 -1.698351,1.1049 -2.762273,1.1049 l -11.785716,0"
       style="fill:#000000;fill-opacity:1;fill-rule:evenodd;stroke:none"
       id="path4196" />
  </g>
</svg>
