<?xml version="1.0" encoding="UTF-8" standalone="no"?>
<!-- Created with Inkscape (http://www.inkscape.org/) -->

<svg
   xmlns:dc="http://purl.org/dc/elements/1.1/"
   xmlns:cc="http://creativecommons.org/ns#"
   xmlns:rdf="http://www.w3.org/1999/02/22-rdf-syntax-ns#"
   xmlns:svg="http://www.w3.org/2000/svg"
   xmlns="http://www.w3.org/2000/svg"
   xmlns:xlink="http://www.w3.org/1999/xlink"
   xmlns:sodipodi="http://sodipodi.sourceforge.net/DTD/sodipodi-0.dtd"
   xmlns:inkscape="http://www.inkscape.org/namespaces/inkscape"
   version="1.0"
   width="64"
   height="64"
   id="svg11300"
   sodipodi:version="0.32"
   inkscape:version="0.47 r22583"
   sodipodi:docname="cardapio-48.svg"
   inkscape:output_extension="org.inkscape.output.svg.inkscape"
   inkscape:export-filename="/home/jancborchardt/Dropbox/Cardapio/cardapio-48.png"
   inkscape:export-xdpi="90"
   inkscape:export-ydpi="90">
  <metadata
     id="metadata101">
    <rdf:RDF>
      <cc:Work
         rdf:about="">
        <dc:format>image/svg+xml</dc:format>
        <dc:type
           rdf:resource="http://purl.org/dc/dcmitype/StillImage" />
        <dc:title></dc:title>
      </cc:Work>
    </rdf:RDF>
  </metadata>
  <sodipodi:namedview
     inkscape:window-height="738"
     inkscape:window-width="1280"
     inkscape:pageshadow="2"
     inkscape:pageopacity="0.0"
     guidetolerance="10.0"
     gridtolerance="10.0"
     objecttolerance="10.0"
     borderopacity="1.0"
     bordercolor="#666666"
     pagecolor="#ffffff"
     id="base"
     showgrid="false"
     inkscape:zoom="3.6681164"
     inkscape:cx="8.9368734"
     inkscape:cy="59.368474"
     inkscape:window-x="0"
     inkscape:window-y="35"
     inkscape:current-layer="g5585"
     inkscape:window-maximized="1" />
  <defs
     id="defs3">
    <inkscape:perspective
       sodipodi:type="inkscape:persp3d"
       inkscape:vp_x="0 : 24 : 1"
       inkscape:vp_y="0 : 1000 : 0"
       inkscape:vp_z="48 : 24 : 1"
       inkscape:persp3d-origin="24 : 16 : 1"
       id="perspective103" />
    <linearGradient
       id="linearGradient7400">
      <stop
         id="stop7402"
         style="stop-color:black;stop-opacity:0"
         offset="0" />
      <stop
         id="stop7404"
         style="stop-color:black;stop-opacity:1"
         offset="0.35000691" />
      <stop
         id="stop7406"
         style="stop-color:black;stop-opacity:0"
         offset="1" />
    </linearGradient>
    <linearGradient
       id="linearGradient6814">
      <stop
         id="stop6816"
         style="stop-color:#e6e6e6;stop-opacity:1"
         offset="0" />
      <stop
         id="stop6818"
         style="stop-color:#fafafa;stop-opacity:1"
         offset="1" />
    </linearGradient>
    <linearGradient
       id="linearGradient6806">
      <stop
         id="stop6808"
         style="stop-color:white;stop-opacity:1"
         offset="0" />
      <stop
         id="stop6810"
         style="stop-color:white;stop-opacity:0"
         offset="1" />
    </linearGradient>
    <linearGradient
       id="linearGradient3155-40">
      <stop
         id="stop2541"
         style="stop-color:#181818;stop-opacity:1"
         offset="0" />
      <stop
         id="stop2543"
         style="stop-color:#dbdbdb;stop-opacity:1"
         offset="0.13482948" />
      <stop
         id="stop2545"
         style="stop-color:#a4a4a4;stop-opacity:1"
         offset="0.20224422" />
      <stop
         id="stop2547"
         style="stop-color:white;stop-opacity:1"
         offset="0.26965895" />
      <stop
         id="stop2549"
         style="stop-color:#8d8d8d;stop-opacity:1"
         offset="0.44650277" />
      <stop
         id="stop2551"
         style="stop-color:#959595;stop-opacity:1"
         offset="0.57114136" />
      <stop
         id="stop2553"
         style="stop-color:#cecece;stop-opacity:1"
         offset="0.72038066" />
      <stop
         id="stop2555"
         style="stop-color:#181818;stop-opacity:1"
         offset="1" />
    </linearGradient>
    <linearGradient
       id="linearGradient3240-279">
      <stop
         id="stop2559"
         style="stop-color:#565656;stop-opacity:1"
         offset="0" />
      <stop
         id="stop2561"
         style="stop-color:#9a9a9a;stop-opacity:1"
         offset="0.5" />
      <stop
         id="stop2563"
         style="stop-color:#545454;stop-opacity:1"
         offset="1" />
    </linearGradient>
    <linearGradient
       id="linearGradient3223-789">
      <stop
         id="stop2567"
         style="stop-color:#b1b1b1;stop-opacity:1"
         offset="0" />
      <stop
         id="stop2569"
         style="stop-color:white;stop-opacity:1"
         offset="0.5" />
      <stop
         id="stop2571"
         style="stop-color:#8f8f8f;stop-opacity:1"
         offset="1" />
    </linearGradient>
    <linearGradient
       id="linearGradient3240-686">
      <stop
         id="stop2575"
         style="stop-color:#565656;stop-opacity:1"
         offset="0" />
      <stop
         id="stop2577"
         style="stop-color:#9a9a9a;stop-opacity:1"
         offset="0.5" />
      <stop
         id="stop2579"
         style="stop-color:#545454;stop-opacity:1"
         offset="1" />
    </linearGradient>
    <linearGradient
       id="linearGradient3223-768">
      <stop
         id="stop2583"
         style="stop-color:#b1b1b1;stop-opacity:1"
         offset="0" />
      <stop
         id="stop2585"
         style="stop-color:white;stop-opacity:1"
         offset="0.5" />
      <stop
         id="stop2587"
         style="stop-color:#8f8f8f;stop-opacity:1"
         offset="1" />
    </linearGradient>
    <linearGradient
       id="linearGradient3240-907">
      <stop
         id="stop2591"
         style="stop-color:#565656;stop-opacity:1"
         offset="0" />
      <stop
         id="stop2593"
         style="stop-color:#9a9a9a;stop-opacity:1"
         offset="0.5" />
      <stop
         id="stop2595"
         style="stop-color:#545454;stop-opacity:1"
         offset="1" />
    </linearGradient>
    <linearGradient
       id="linearGradient3223-699">
      <stop
         id="stop2599"
         style="stop-color:#b1b1b1;stop-opacity:1"
         offset="0" />
      <stop
         id="stop2601"
         style="stop-color:white;stop-opacity:1"
         offset="0.5" />
      <stop
         id="stop2603"
         style="stop-color:#8f8f8f;stop-opacity:1"
         offset="1" />
    </linearGradient>
    <linearGradient
       id="linearGradient3290-678">
      <stop
         id="stop2607"
         style="stop-color:#ece5a5;stop-opacity:1"
         offset="0" />
      <stop
         id="stop2609"
         style="stop-color:#fcfbf2;stop-opacity:1"
         offset="1" />
    </linearGradient>
    <linearGradient
       id="linearGradient3191-577">
      <stop
         id="stop2613"
         style="stop-color:#dbce48;stop-opacity:1"
         offset="0" />
      <stop
         id="stop2615"
         style="stop-color:#c5b625;stop-opacity:1"
         offset="1" />
    </linearGradient>
    <linearGradient
       id="linearGradient5048">
      <stop
         id="stop5050"
         style="stop-color:black;stop-opacity:0"
         offset="0" />
      <stop
         id="stop5056"
         style="stop-color:black;stop-opacity:1"
         offset="0.5" />
      <stop
         id="stop5052"
         style="stop-color:black;stop-opacity:0"
         offset="1" />
    </linearGradient>
    <linearGradient
       id="linearGradient5060">
      <stop
         id="stop5062"
         style="stop-color:black;stop-opacity:1"
         offset="0" />
      <stop
         id="stop5064"
         style="stop-color:black;stop-opacity:0"
         offset="1" />
    </linearGradient>
    <linearGradient
       x1="9"
       y1="29.056757"
       x2="9"
       y2="26.02973"
       id="linearGradient5626"
       xlink:href="#linearGradient3290-678"
       gradientUnits="userSpaceOnUse"
       gradientTransform="matrix(0.6380091,-0.6411367,0.8596263,0.8553493,-2.276889,13.170509)" />
    <linearGradient
       x1="5.5178981"
       y1="37.371799"
       x2="9.5220556"
       y2="41.391716"
       id="linearGradient5628"
       xlink:href="#linearGradient3191-577"
       gradientUnits="userSpaceOnUse"
       gradientTransform="matrix(0.5603647,0.02418622,0.02415646,0.5596736,20.931003,9.5440028)" />
    <linearGradient
       x1="30.037716"
       y1="24.989594"
       x2="30.037716"
       y2="30.000141"
       id="linearGradient5631"
       xlink:href="#linearGradient3223-699"
       gradientUnits="userSpaceOnUse"
       gradientTransform="matrix(0.6380091,-0.6411367,0.8596262,0.8553492,-0.944331,11.831422)" />
    <linearGradient
       x1="30.037716"
       y1="24.989594"
       x2="30.037716"
       y2="30.000141"
       id="linearGradient5634"
       xlink:href="#linearGradient3240-907"
       gradientUnits="userSpaceOnUse"
       gradientTransform="matrix(0.6380091,-0.6411367,0.8596262,0.8553492,-0.761614,11.647808)" />
    <linearGradient
       x1="30.037716"
       y1="24.989594"
       x2="30.037716"
       y2="30.000141"
       id="linearGradient5637"
       xlink:href="#linearGradient3223-768"
       gradientUnits="userSpaceOnUse"
       gradientTransform="matrix(0.6380091,-0.6411367,0.8596262,0.8553492,-1.582341,12.472557)" />
    <linearGradient
       x1="30.037716"
       y1="24.989594"
       x2="30.037716"
       y2="30.000141"
       id="linearGradient5641"
       xlink:href="#linearGradient3240-686"
       gradientUnits="userSpaceOnUse"
       gradientTransform="matrix(0.6380091,-0.6411367,0.8596262,0.8553492,-1.399623,12.288945)" />
    <linearGradient
       x1="30.037716"
       y1="24.989594"
       x2="30.037716"
       y2="30.000141"
       id="linearGradient5644"
       xlink:href="#linearGradient3223-789"
       gradientUnits="userSpaceOnUse"
       gradientTransform="matrix(0.6380091,-0.6411367,0.8596262,0.8553492,-2.21728,13.110611)" />
    <linearGradient
       x1="30.037716"
       y1="24.989594"
       x2="30.037716"
       y2="30.000141"
       id="linearGradient5647"
       xlink:href="#linearGradient3240-279"
       gradientUnits="userSpaceOnUse"
       gradientTransform="matrix(0.6380091,-0.6411367,0.8596262,0.8553492,-2.034563,12.926998)" />
    <linearGradient
       x1="23.575972"
       y1="25.356892"
       x2="23.575972"
       y2="31.210939"
       id="linearGradient5652"
       xlink:href="#linearGradient3155-40"
       gradientUnits="userSpaceOnUse"
       gradientTransform="matrix(0.6565695,-0.659788,0.7345237,0.7308691,0.371494,16.303084)"
       spreadMethod="pad" />
    <linearGradient
       x1="27.975767"
       y1="13"
       x2="27.991301"
       y2="8"
       id="linearGradient5684"
       xlink:href="#linearGradient6814"
       gradientUnits="userSpaceOnUse"
       gradientTransform="matrix(1.047619,0,0,1.2,-6.3809524,-6.5908752)" />
    <linearGradient
       x1="18"
       y1="46"
       x2="18"
       y2="32.999397"
       id="linearGradient5687"
       xlink:href="#linearGradient7400"
       gradientUnits="userSpaceOnUse"
       gradientTransform="matrix(1.3333333,0,0,0.3846153,-5.9999999,-6.683179)" />
    <radialGradient
       cx="6.75"
       cy="25.539635"
       r="15.5"
       fx="6.75"
       fy="25.539635"
       id="radialGradient5690"
       xlink:href="#linearGradient6806"
       gradientUnits="userSpaceOnUse"
       gradientTransform="matrix(1.4512815,0.02574254,-0.03333571,1.8793595,-2.1947685,-21.287793)" />
    <linearGradient
       x1="25"
       y1="49"
       x2="25"
       y2="13.178486"
       id="linearGradient5693"
       xlink:href="#linearGradient6814"
       gradientUnits="userSpaceOnUse"
       gradientTransform="matrix(1.1851206,0,0,1.0512421,-8.128017,-4.4768999)" />
    <radialGradient
       cx="605.71429"
       cy="486.64789"
       r="117.14286"
       fx="605.71429"
       fy="486.64789"
       id="radialGradient5696"
       xlink:href="#linearGradient5060"
       gradientUnits="userSpaceOnUse"
       gradientTransform="matrix(0.02108503,0,0,0.01235294,23.667902,40.479975)" />
    <radialGradient
       cx="605.71429"
       cy="486.64789"
       r="117.14286"
       fx="605.71429"
       fy="486.64789"
       id="radialGradient5699"
       xlink:href="#linearGradient5060"
       gradientUnits="userSpaceOnUse"
       gradientTransform="matrix(-0.02108502,0,0,0.01235294,19.332123,40.479975)" />
    <linearGradient
       x1="302.85715"
       y1="366.64789"
       x2="302.85715"
       y2="609.50507"
       id="linearGradient5702"
       xlink:href="#linearGradient5048"
       gradientUnits="userSpaceOnUse"
       gradientTransform="matrix(0.06161243,0,0,0.01235294,-0.768481,40.479955)" />
    <inkscape:perspective
       id="perspective2989"
       inkscape:persp3d-origin="0.5 : 0.33333333 : 1"
       inkscape:vp_z="1 : 0.5 : 1"
       inkscape:vp_y="0 : 1000 : 0"
       inkscape:vp_x="0 : 0.5 : 1"
       sodipodi:type="inkscape:persp3d" />
    <linearGradient
       x1="-172.65306"
       y1="99.667191"
       x2="-164.71831"
       y2="91.972626"
       id="linearGradient2834"
       xlink:href="#linearGradient11114-516"
       gradientUnits="userSpaceOnUse"
       gradientTransform="matrix(0.2929324,0,0,0.2900327,88.604961,11.361827)" />
    <linearGradient
       id="linearGradient11114-516">
      <stop
         id="stop3372"
         style="stop-color:#242424;stop-opacity:0.99215686"
         offset="0" />
      <stop
         id="stop3374"
         style="stop-color:#656565;stop-opacity:1"
         offset="1" />
    </linearGradient>
    <linearGradient
       x1="32.892574"
       y1="27.988184"
       x2="31.364458"
       y2="29.484051"
       id="linearGradient2836"
       xlink:href="#linearGradient3277-442"
       gradientUnits="userSpaceOnUse"
       gradientTransform="matrix(0.7525742,0,0,0.7451247,13.056486,15.866532)" />
    <linearGradient
       id="linearGradient3277-442">
      <stop
         id="stop3378"
         style="stop-color:#575757;stop-opacity:1"
         offset="0" />
      <stop
         id="stop3380"
         style="stop-color:#333333;stop-opacity:1"
         offset="1" />
    </linearGradient>
    <linearGradient
       x1="277.573"
       y1="146.1507"
       x2="201.87128"
       y2="67.350082"
       id="linearGradient2831"
       xlink:href="#linearGradient12093-170"
       gradientUnits="userSpaceOnUse"
       gradientTransform="matrix(0.2929324,0,0,0.2900327,-24.195615,14.164716)" />
    <linearGradient
       id="linearGradient12093-170">
      <stop
         id="stop3384"
         style="stop-color:#ffffff;stop-opacity:1"
         offset="0" />
      <stop
         id="stop3386"
         style="stop-color:#ffffff;stop-opacity:0"
         offset="1" />
    </linearGradient>
    <radialGradient
       cx="18.240929"
       cy="21.817987"
       r="8.3085051"
       fx="18.240929"
       fy="21.817987"
       id="radialGradient5828"
       xlink:href="#linearGradient4454-600"
       gradientUnits="userSpaceOnUse" />
    <linearGradient
       id="linearGradient4454-600">
      <stop
         id="stop3408"
         style="stop-color:#a1a1a1;stop-opacity:0.20784314"
         offset="0" />
      <stop
         id="stop3410"
         style="stop-color:#a1a1a1;stop-opacity:0.67843139"
         offset="1" />
    </linearGradient>
    <radialGradient
       cx="15.414371"
       cy="13.078408"
       r="6.65625"
       fx="15.414371"
       fy="13.078408"
       id="radialGradient2826"
       xlink:href="#linearGradient4467-402"
       gradientUnits="userSpaceOnUse"
       gradientTransform="matrix(2.2852324,0,0,1.7582798,-11.39792,-1.3673982)" />
    <linearGradient
       id="linearGradient4467-402">
      <stop
         id="stop3390"
         style="stop-color:#ffffff;stop-opacity:1"
         offset="0" />
      <stop
         id="stop3392"
         style="stop-color:#ffffff;stop-opacity:0.24761905"
         offset="1" />
    </linearGradient>
    <linearGradient
       x1="173.09576"
       y1="75.31868"
       x2="173.09576"
       y2="11.949074"
       id="linearGradient2821"
       xlink:href="#linearGradient2300-465"
       gradientUnits="userSpaceOnUse"
       gradientTransform="matrix(0.3004586,0,0,0.2974845,-25.404767,14.268827)" />
    <linearGradient
       id="linearGradient2300-465">
      <stop
         id="stop3396"
         style="stop-color:#343434;stop-opacity:0.97647059"
         offset="0" />
      <stop
         id="stop3398"
         style="stop-color:#929292;stop-opacity:1"
         offset="1" />
    </linearGradient>
    <linearGradient
       x1="41.541653"
       y1="68.291702"
       x2="41.485142"
       y2="4.5362983"
       id="linearGradient2823"
       xlink:href="#linearGradient11104-770"
       gradientUnits="userSpaceOnUse"
       gradientTransform="matrix(0.3004586,0,0,0.2974845,13.568071,16.507666)" />
    <linearGradient
       id="linearGradient11104-770">
      <stop
         id="stop3402"
         style="stop-color:#333333;stop-opacity:1"
         offset="0" />
      <stop
         id="stop3404"
         style="stop-color:#333333;stop-opacity:0.6122449"
         offset="1" />
    </linearGradient>
    <linearGradient
       x1="173.09576"
       y1="75.31868"
       x2="173.09576"
       y2="11.949074"
       id="linearGradient2818"
       xlink:href="#linearGradient6209-717"
       gradientUnits="userSpaceOnUse"
       gradientTransform="matrix(0.2861419,0,0,0.2833094,-22.84742,14.708773)" />
    <linearGradient
       id="linearGradient6209-717">
      <stop
         id="stop3366"
         style="stop-color:#979797;stop-opacity:1"
         offset="0" />
      <stop
         id="stop3368"
         style="stop-color:#000000;stop-opacity:0.34117648"
         offset="1" />
    </linearGradient>
    <linearGradient
       y2="11.949074"
       x2="173.09576"
       y1="75.31868"
       x1="173.09576"
       gradientTransform="matrix(0.2861419,0,0,0.2833094,-22.84742,14.708773)"
       gradientUnits="userSpaceOnUse"
       id="linearGradient3033"
       xlink:href="#linearGradient6209-717"
       inkscape:collect="always" />
  </defs>
  <g
     id="g5585"
     transform="translate(-1.9999998,16.999996)">
    <g
       id="g2907"
       transform="matrix(1.4545454,0,0,1.4545454,-0.90981028,-21.378273)">
      <rect
         style="opacity:0.35;fill:url(#linearGradient5702);fill-opacity:1;fill-rule:nonzero;stroke:none;stroke-width:1.04588675;marker:none;visibility:visible;display:inline;overflow:visible"
         id="rect3706"
         y="45.009125"
         x="6.6250262"
         height="2.9999998"
         width="29.75" />
      <path
         style="opacity:0.35;fill:url(#radialGradient5699);fill-opacity:1;fill-rule:nonzero;stroke:none;stroke-width:1.04588675;marker:none;visibility:visible;display:inline;overflow:visible"
         id="path3708"
         d="m 6.6250119,45.009255 c 0,0 0,2.99984 0,2.99984 -1.0858235,0.0057 -2.6250001,-0.67211 -2.6250001,-1.50011 0,-0.828 1.2117001,-1.49973 2.6250001,-1.49973 z" />
      <path
         style="opacity:0.35;fill:url(#radialGradient5696);fill-opacity:1;fill-rule:nonzero;stroke:none;stroke-width:1.04588675;marker:none;visibility:visible;display:inline;overflow:visible"
         id="path3710"
         d="m 36.375013,45.009255 c 0,0 0,2.99984 0,2.99984 1.085824,0.0057 2.625,-0.67211 2.625,-1.50011 0,-0.828 -1.2117,-1.49973 -2.625,-1.49973 z" />
      <rect
         style="fill:url(#linearGradient5693);fill-opacity:1;stroke:#aaaaaa;stroke-width:1.00008166;stroke-linecap:round;stroke-linejoin:round;stroke-miterlimit:4;stroke-opacity:1;stroke-dasharray:none"
         id="rect6802"
         y="5.5091639"
         x="5.500041"
         ry="1"
         rx="1"
         height="40.99992"
         width="31.999918" />
      <rect
         style="fill:none;stroke:url(#radialGradient5690);stroke-width:1.00012183;stroke-linecap:round;stroke-linejoin:round;stroke-miterlimit:4;stroke-opacity:1;stroke-dasharray:none"
         id="rect6804"
         y="5.5091858"
         x="6.500061"
         ry="0.5"
         rx="0.5"
         height="39.999878"
         width="29.999878" />
      <rect
         style="opacity:0.4;fill:url(#linearGradient5687);fill-opacity:1;stroke:none"
         id="rect7392"
         y="6.0091257"
         x="1.9999998"
         height="4.999999"
         width="44" />
      <rect
         style="fill:url(#linearGradient5684);fill-opacity:1;stroke:none"
         id="rect6028"
         y="3.0091248"
         x="2"
         height="6"
         width="44" />
      <rect
         style="fill:#aaaaaa;fill-opacity:1;stroke:none"
         id="rect6800"
         y="9.0091248"
         x="2"
         height="1"
         width="44" />
      <path
         style="fill:#999999;fill-opacity:1;stroke:none"
         id="path5721"
         d="m 10.09375,5.0091248 0,2 2.9375,0 0,-2 -2.9375,0 z m 4.09375,0 0,2 0.9375,0 0,-2 -0.9375,0 z m 1.9375,0 0,2 2,0 0,-2 -2,0 z m 3,0 0,2 2,0 0,-2 -2,0 z m 3.0625,0 0,2 2.9375,0 0,-2 -2.9375,0 z m 4.03125,0 0,2 1,0 0,-2 -1,0 z M 10.1875,15.009125 l 0,2 2,0 0,-2 -2,0 z m 4,0 0,2 4,0 0,-2 -4,0 z m 5,0 0,2 1,0 0,-2 -1,0 z m 2,0 0,2 2,0 0,-2 -2,0 z m 3,0 0,2 1,0 0,-2 -1,0 z m -14,6 0,2 2.9375,0 0,-2 -2.9375,0 z m 4,0 0,2 2,0 0,-2 -2,0 z m 3,0 0,2 1,0 0,-2 -1,0 z m 3,0 0,2 2,0 0,-2 -2,0 z m 3.09375,0 0,2 2.90625,0 0,-2 -2.90625,0 z m -13.09375,6 0,2 1,0 0,-2 -1,0 z m 2,0 0,2 1,0 0,-2 -1,0 z m 2,0 0,2 4,0 0,-2 -4,0 z m 6,0 0,2 2,0 0,-2 -2,0 z m 3,0 0,2 3,0 0,-2 -3,0 z m -13,12 0,2 2.9375,0 0,-2 -2.9375,0 z m 4.09375,0 0,2 2.90625,0 0,-2 -2.90625,0 z m 3.90625,0 0,2 1,0 0,-2 -1,0 z m 3,0 0,2 2,0 0,-2 -2,0 z" />
      <rect
         style="fill:#f07a50;fill-opacity:1;stroke:#eb4b19;stroke-width:0.99989235;stroke-linecap:square;stroke-linejoin:miter;stroke-miterlimit:10;stroke-opacity:1;stroke-dasharray:none"
         id="rect5731"
         y="31.509071"
         x="7.4999461"
         ry="1"
         rx="1"
         height="5.0001078"
         width="28.000109" />
      <path
         style="fill:#4d4d4d;fill-opacity:1;stroke:none;display:inline;enable-background:new"
         id="rect7428"
         d="m 10.1875,33.009125 0,2 1,0 0,-2 -1,0 z m 3,0 0,2 2.9375,0 0,-2 -2.9375,0 z m 4,0 0,2 2,0 0,-2 -2,0 z m 3,0 0,2 1,0 0,-2 -1,0 z m 2.09375,0 0,2 2.90625,0 0,-2 -2.90625,0 z" />
    </g>
    <g
       transform="matrix(1.4545454,0,0,1.4545454,-4.0328198,-22.837759)"
       id="g2972">
      <path
         style="fill:url(#linearGradient2834);fill-opacity:1;fill-rule:evenodd;stroke:url(#linearGradient2836);stroke-width:0.93605024;stroke-linecap:round;stroke-linejoin:round;stroke-miterlimit:4;stroke-opacity:1;stroke-dasharray:none;display:inline"
         id="path11112"
         d="M 34.138851,32.949914 47.236654,45.019282 45.421116,47.458831 32.370749,34.403003 34.138851,32.949914 z" />
      <path
         style="fill:url(#linearGradient2831);fill-opacity:1;fill-rule:evenodd;stroke:none;display:inline"
         id="path11122"
         d="M 45.443191,46.666592 34.939015,33.698442 47.647774,44.74063 45.443191,46.666592 z" />
      <path
         style="fill:#3e3e3e;fill-opacity:1;stroke:none;display:inline"
         id="path13082"
         transform="matrix(0.275472,-0.3088431,0.3530977,0.2301519,-59.38847,96.055097)"
         d="m 247.90924,110.29199 a 4.86685,2.6562012 0 1 1 -9.7337,0 4.86685,2.6562012 0 1 1 9.7337,0 z" />
      <path
         style="fill:url(#radialGradient5828);fill-opacity:1;fill-rule:evenodd;stroke:none;stroke-width:0.88163906;marker:none;visibility:visible;display:inline"
         id="path4340"
         transform="matrix(1.1079784,0,0,1.0703357,7.5804984,7.0727343)"
         d="m 25.897786,18.478292 a 8.3085051,8.3085051 0 1 1 -16.61701,0 8.3085051,8.3085051 0 1 1 16.61701,0 z" />
      <path
         style="opacity:0.83422457;fill:url(#radialGradient2826);fill-opacity:1;fill-rule:evenodd;stroke:none;stroke-width:1;marker:none;visibility:visible;display:inline;overflow:visible"
         id="path4342"
         d="m 26.68983,19.195167 c -4.589557,0 -8.306051,3.292295 -8.306051,7.358005 0,1.174194 0.102908,2.387 0.655373,3.37238 1.103749,0.360394 2.543761,0.473161 3.788194,0.473161 5.438592,0 10.116431,-3.99427 10.452059,-8.737574 -1.525536,-1.597003 -4.044797,-2.465972 -6.589575,-2.465972 z" />
      <path
         style="fill:url(#linearGradient2821);fill-opacity:1;stroke:url(#linearGradient2823);stroke-width:0.96009994;stroke-linecap:round;stroke-linejoin:round;stroke-miterlimit:4;stroke-opacity:1;stroke-dasharray:none;display:inline"
         id="path2298"
         d="m 26.866667,17.970308 c -5.65359,0 -10.243764,4.190722 -10.243761,9.352168 0,5.161445 4.590171,9.352166 10.243761,9.352167 5.653584,0 10.243759,-4.190722 10.243759,-9.352167 0,-5.161446 -4.590172,-9.352168 -10.243759,-9.352168 z m 0.12206,0.613562 c 5.059997,0 9.173377,3.747223 9.173377,8.36675 0,4.619527 -4.11338,8.36675 -9.173377,8.36675 -5.059999,1e-6 -9.163987,-3.747222 -9.163987,-8.36675 0,-4.619527 4.103988,-8.36675 9.163987,-8.36675 z" />
      <path
         style="fill:url(#linearGradient3033);fill-opacity:1;stroke:none;display:inline"
         id="path4267"
         d="m 26.932391,18.239903 c -5.384196,0 -9.746125,3.990435 -9.746125,8.905941 0,4.915506 4.361926,8.905941 9.746125,8.905941 5.384197,0 9.755515,-3.990436 9.755515,-8.905941 0,-4.915506 -4.371321,-8.905941 -9.755515,-8.905941 z m 0.05634,0.343967 c 5.059996,0 8.772096,3.747223 8.772096,8.36675 0,4.619527 -3.7121,7.969441 -8.772096,7.969441 -5.059999,1e-6 -8.829585,-3.349913 -8.829585,-7.969441 0,-4.619527 3.769586,-8.36675 8.829585,-8.36675 z" />
    </g>
  </g>
</svg>
