<?xml version="1.0" encoding="UTF-8" standalone="no"?>
<!-- Created with Inkscape (http://www.inkscape.org/) -->

<svg
   xmlns:dc="http://purl.org/dc/elements/1.1/"
   xmlns:cc="http://creativecommons.org/ns#"
   xmlns:rdf="http://www.w3.org/1999/02/22-rdf-syntax-ns#"
   xmlns:svg="http://www.w3.org/2000/svg"
   xmlns="http://www.w3.org/2000/svg"
   xmlns:sodipodi="http://sodipodi.sourceforge.net/DTD/sodipodi-0.dtd"
   xmlns:inkscape="http://www.inkscape.org/namespaces/inkscape"
   width="256"
   height="256"
   id="svg2"
   version="1.1"
   inkscape:version="0.48.1 r9760"
   sodipodi:docname="cardapio-light256.svg"
   inkscape:export-filename="/home/jancborchardt/jancborchardt/Cardapio/cardapio-light256.png"
   inkscape:export-xdpi="90"
   inkscape:export-ydpi="90">
  <defs
     id="defs4">
    <filter
       inkscape:collect="always"
       id="filter3781">
      <feGaussianBlur
         inkscape:collect="always"
         stdDeviation="6.4"
         id="feGaussianBlur3783" />
    </filter>
  </defs>
  <sodipodi:namedview
     id="base"
     pagecolor="#ffffff"
     bordercolor="#666666"
     borderopacity="1.0"
     inkscape:pageopacity="0.0"
     inkscape:pageshadow="2"
     inkscape:zoom="0.61871843"
     inkscape:cx="82.603127"
     inkscape:cy="-91.16025"
     inkscape:document-units="px"
     inkscape:current-layer="layer1"
     showgrid="false"
     inkscape:window-width="1280"
     inkscape:window-height="776"
     inkscape:window-x="0"
     inkscape:window-y="24"
     inkscape:window-maximized="1"
     showguides="true"
     inkscape:guide-bbox="true" />
  <metadata
     id="metadata7">
    <rdf:RDF>
      <cc:Work
         rdf:about="">
        <dc:format>image/svg+xml</dc:format>
        <dc:type
           rdf:resource="http://purl.org/dc/dcmitype/StillImage" />
        <dc:title></dc:title>
      </cc:Work>
    </rdf:RDF>
  </metadata>
  <g
     inkscape:label="Layer 1"
     inkscape:groupmode="layer"
     id="layer1"
     transform="translate(0,-796.36218)">
    <g
       style="font-size:40px;font-style:normal;font-weight:normal;line-height:125%;letter-spacing:0px;word-spacing:0px;fill:#000000;fill-opacity:1;stroke:none;font-family:Sans"
       id="text2985" />
    <g
       transform="translate(0,-419.99998)"
       style="font-size:40px;font-style:normal;font-weight:normal;line-height:125%;letter-spacing:0px;word-spacing:0px;fill:#000000;fill-opacity:1;stroke:none;font-family:Sans"
       id="text2985-5" />
    <g
       id="g3881"
       style="font-size:40px;font-style:normal;font-weight:normal;line-height:125%;letter-spacing:0px;word-spacing:0px;fill:#000000;fill-opacity:1;stroke:none;font-family:Sans"
       transform="translate(700,0)" />
    <g
       id="g3889"
       style="font-size:40px;font-style:normal;font-weight:normal;line-height:125%;letter-spacing:0px;word-spacing:0px;fill:#000000;fill-opacity:1;stroke:none;font-family:Sans"
       transform="translate(700,-419.99998)" />
    <path
       inkscape:connector-curvature="0"
       d="m 342.81452,1351.0962 c 0,6.6178 -5.36478,11.9826 -11.98255,11.9826 -6.61781,0 -11.98258,-5.3648 -11.98258,-11.9826 0,-6.6178 5.36477,-11.9826 11.98258,-11.9826 6.61777,0 11.98255,5.3648 11.98255,11.9826 z m -31.14002,0 c 0,6.6178 -5.36478,11.9826 -11.98255,11.9826 -6.61781,0 -11.98258,-5.3648 -11.98258,-11.9826 0,-6.6177 5.36477,-11.9825 11.98258,-11.9825 6.61777,0 11.98255,5.3648 11.98255,11.9825 z m -31.48138,0 c 0,6.6178 -5.36478,11.9826 -11.98259,11.9826 -6.61777,0 -11.98255,-5.3648 -11.98255,-11.9826 0,-6.6177 5.36478,-11.9825 11.98255,-11.9825 6.61781,0 11.98259,5.3648 11.98259,11.9825 z m -44.2943,-0.2061 c 0,7.9981 -6.48377,14.4819 -14.48188,14.4819 -7.99811,0 -14.48188,-6.4838 -14.48188,-14.4819 0,-7.9981 6.48377,-14.4819 14.48188,-14.4819 7.99811,0 14.48188,6.4838 14.48188,14.4819 z m 0,-54.1606 c 0,7.9982 -6.48377,14.4819 -14.48188,14.4819 -7.99811,0 -14.48188,-6.4837 -14.48188,-14.4819 0,-7.9981 6.48377,-14.4818 14.48188,-14.4818 7.99811,0 14.48188,6.4837 14.48188,14.4818 z m 0,-54.1583 c 0,7.9981 -6.48377,14.4819 -14.48188,14.4819 -7.99811,0 -14.48188,-6.4838 -14.48188,-14.4819 0,-7.9981 6.48377,-14.4819 14.48188,-14.4819 7.99811,0 14.48188,6.4838 14.48188,14.4819 z m 23.32944,64.192 0,-20 80.53177,0 0,20 -80.53177,0 m 0,-54.3863 0,-20 80.53177,0 0,20 -80.53177,10e-4 m 93.57173,146.3863 c 6.93257,10e-5 12.79922,-2.4 17.6,-7.2 5.33254,-4.7999 7.99919,-10.9333 8.00002,-18.4 l 0,-153.6 c -8.3e-4,-6.9331 -2.66748,-12.7998 -8.00002,-17.6 -4.80078,-5.3332 -10.66743,-7.9998 -17.6,-8 l -153.59998,0 c -7.46728,2e-4 -13.60065,2.6668 -18.40004,8 -4.80056,4.8002 -7.20062,10.6669 -7.19995,17.6 l 0,153.6 c -6.7e-4,7.4667 2.39939,13.6001 7.19995,18.4 4.79939,4.8 10.93276,7.2001 18.40004,7.2 l 153.59998,0 m -153.59998,25.6 c -14.40065,0 -26.66731,-4.7999 -36.8,-14.4 -9.60059,-10.1333 -14.40058,-22.4 -14.40001,-36.8 l 0,-153.6 c -5.7e-4,-13.8665 4.79942,-25.8665 14.40001,-36 10.13269,-10.1331 22.39935,-15.1997 36.8,-15.2 l 153.59998,0 c 13.86587,3e-4 25.86585,5.0669 35.99997,15.2 10.13253,10.1335 15.19921,22.1335 15.20004,36 l 0,153.6 c -8.3e-4,14.4 -5.06751,26.6667 -15.20004,36.8 -10.13412,9.6001 -22.1341,14.4 -35.99997,14.4 l -153.59998,0"
       style="fill:#000000;fill-opacity:0.35294118;fill-rule:evenodd;stroke:none;filter:url(#filter3781)"
       id="path4160"
       transform="matrix(0.89285714,0,0,0.89285714,-118.42858,-233.10585)" />
    <path
       id="path3135"
       style="fill:#ffffff;fill-opacity:1;fill-rule:evenodd;stroke:none"
       d="m 187.6558,973.23005 c 0,5.90875 -4.79,10.69869 -10.69867,10.69869 -5.90874,0 -10.69875,-4.78994 -10.69875,-10.69869 0,-5.90874 4.79001,-10.69879 10.69875,-10.69879 5.90867,0 10.69867,4.79005 10.69867,10.69879 z m -27.80357,0 c 0,5.90875 -4.79001,10.69869 -10.69866,10.69869 -5.90885,0 -10.69875,-4.78994 -10.69875,-10.69869 0,-5.90863 4.7899,-10.69868 10.69875,-10.69868 5.90865,0 10.69866,4.79005 10.69866,10.69868 z m -28.10839,0 c 0,5.90875 -4.79001,10.69869 -10.69875,10.69869 -5.90867,0 -10.69866,-4.78994 -10.69866,-10.69869 0,-5.90863 4.78999,-10.69868 10.69866,-10.69868 5.90874,0 10.69875,4.79005 10.69875,10.69868 z m -39.548477,-0.18403 c 0,7.14116 -5.789108,12.93027 -12.930269,12.93027 -7.141161,0 -12.930179,-5.78911 -12.930179,-12.93027 0,-7.14116 5.789018,-12.93027 12.930179,-12.93027 7.141161,0 12.930269,5.78911 12.930269,12.93027 z m 0,-48.35762 c 0,7.14116 -5.789108,12.93027 -12.930269,12.93027 -7.141161,0 -12.930179,-5.78911 -12.930179,-12.93027 0,-7.14116 5.789018,-12.93027 12.930179,-12.93027 7.141161,0 12.930269,5.78911 12.930269,12.93027 z m 0,-48.35573 c 0,7.14116 -5.789108,12.93027 -12.930269,12.93027 -7.141161,0 -12.930179,-5.78911 -12.930179,-12.93027 0,-7.14116 5.789018,-12.93027 12.930179,-12.93027 7.141161,0 12.930269,5.78911 12.930269,12.93027 z m 20.829897,57.31432 0,-17.85714 71.90331,0 0,17.85714 -71.90331,0 m 0,-48.55918 0,-17.85714 71.90331,0 0,17.85714 -71.90331,8.9e-4 m 83.54616,130.7003 c 6.18983,10e-5 11.42786,-2.1428 15.71429,-6.4286 4.76116,-4.2856 7.14215,-9.76185 7.14286,-16.42853 l 0,-137.14293 c -7.1e-4,-6.1902 -2.3817,-11.42834 -7.14286,-15.71428 -4.28643,-4.76171 -9.52446,-7.14261 -15.71429,-7.14284 l -137.142834,0 c -6.667223,2.3e-4 -12.143444,2.38113 -16.428609,7.14284 -4.286215,4.28594 -6.429132,9.52408 -6.428529,15.71428 l 0,137.14293 c -6.03e-4,6.66668 2.142314,12.14293 6.428529,16.42853 4.285165,4.2858 9.761386,6.4287 16.428609,6.4286 l 137.142834,0 m -137.142834,22.8571 c -12.857728,0 -23.810104,-4.2856 -32.857152,-12.8571 -8.571948,-9.0476 -12.85766,-20 -12.857147,-32.85713 l 0,-137.14293 c -5.13e-4,-12.38074 4.285199,-23.09505 12.857147,-32.14281 9.047048,-9.04743 19.999424,-13.5712 32.857152,-13.57142 l 137.142834,0 c 12.38028,2.2e-4 23.09447,4.52399 32.14286,13.57142 9.04688,9.04776 13.57072,19.76207 13.57143,32.14281 l 0,137.14293 c -7.1e-4,12.85713 -4.52455,23.80953 -13.57143,32.85713 -9.04839,8.5715 -19.76258,12.8571 -32.14286,12.8571 l -137.142834,0"
       inkscape:connector-curvature="0" />
  </g>
</svg>
