<?xml version="1.0" encoding="UTF-8" standalone="no"?>
<!-- Created with Inkscape (http://www.inkscape.org/) -->

<svg
   xmlns:dc="http://purl.org/dc/elements/1.1/"
   xmlns:cc="http://creativecommons.org/ns#"
   xmlns:rdf="http://www.w3.org/1999/02/22-rdf-syntax-ns#"
   xmlns:svg="http://www.w3.org/2000/svg"
   xmlns="http://www.w3.org/2000/svg"
   xmlns:sodipodi="http://sodipodi.sourceforge.net/DTD/sodipodi-0.dtd"
   xmlns:inkscape="http://www.inkscape.org/namespaces/inkscape"
   width="192"
   height="192"
   id="svg2"
   version="1.1"
   inkscape:version="0.48.1 r9760"
   sodipodi:docname="cardapio-dark256.svg"
   inkscape:export-filename="/home/jancborchardt/jancborchardt/Cardapio/cardapio-dark2562.png"
   inkscape:export-xdpi="90"
   inkscape:export-ydpi="90">
  <defs
     id="defs4">
    <filter
       inkscape:collect="always"
       id="filter3963"
       color-interpolation-filters="sRGB">
      <feGaussianBlur
         inkscape:collect="always"
         stdDeviation="6.4"
         id="feGaussianBlur3965" />
    </filter>
  </defs>
  <sodipodi:namedview
     id="base"
     pagecolor="#ffffff"
     bordercolor="#666666"
     borderopacity="1.0"
     inkscape:pageopacity="0.0"
     inkscape:pageshadow="2"
     inkscape:zoom="0.61871843"
     inkscape:cx="283.82552"
     inkscape:cy="-91.16025"
     inkscape:document-units="px"
     inkscape:current-layer="layer1"
     showgrid="false"
     inkscape:window-width="1280"
     inkscape:window-height="776"
     inkscape:window-x="0"
     inkscape:window-y="24"
     inkscape:window-maximized="1"
     showguides="true"
     inkscape:guide-bbox="true" />
  <metadata
     id="metadata7">
    <rdf:RDF>
      <cc:Work
         rdf:about="">
        <dc:format>image/svg+xml</dc:format>
        <dc:type
           rdf:resource="http://purl.org/dc/dcmitype/StillImage" />
        <dc:title></dc:title>
      </cc:Work>
    </rdf:RDF>
  </metadata>
  <g
     inkscape:label="Layer 1"
     inkscape:groupmode="layer"
     id="layer1"
     transform="translate(0,-860.36218)">
    <g
       style="font-size:40px;font-style:normal;font-weight:normal;line-height:125%;letter-spacing:0px;word-spacing:0px;fill:#000000;fill-opacity:1;stroke:none;font-family:Sans"
       id="text2985"
       transform="matrix(1.1160179,0,0,1.1160179,-14.849729,-107.24284)" />
    <g
       transform="matrix(1.1160179,0,0,1.1160179,-14.849729,-575.97034)"
       style="font-size:40px;font-style:normal;font-weight:normal;line-height:125%;letter-spacing:0px;word-spacing:0px;fill:#000000;fill-opacity:1;stroke:none;font-family:Sans"
       id="text2985-5" />
    <g
       id="g3881"
       style="font-size:40px;font-style:normal;font-weight:normal;line-height:125%;letter-spacing:0px;word-spacing:0px;fill:#000000;fill-opacity:1;stroke:none;font-family:Sans"
       transform="matrix(1.1160179,0,0,1.1160179,766.36281,-107.24284)" />
    <g
       id="g3889"
       style="font-size:40px;font-style:normal;font-weight:normal;line-height:125%;letter-spacing:0px;word-spacing:0px;fill:#000000;fill-opacity:1;stroke:none;font-family:Sans"
       transform="matrix(1.1160179,0,0,1.1160179,766.36281,-575.97034)" />
    <path
       id="path4172"
       style="fill:#ffffff;fill-opacity:0.47083333;fill-rule:evenodd;stroke:none;filter:url(#filter3963)"
       d="m 1142.8145,1351.0962 c 0,6.6178 -5.3648,11.9826 -11.9825,11.9826 -6.6178,0 -11.9826,-5.3648 -11.9826,-11.9826 0,-6.6178 5.3648,-11.9826 11.9826,-11.9826 6.6177,0 11.9825,5.3648 11.9825,11.9826 z m -31.14,0 c 0,6.6178 -5.3648,11.9826 -11.9825,11.9826 -6.6179,0 -11.9826,-5.3648 -11.9826,-11.9826 0,-6.6177 5.3647,-11.9825 11.9826,-11.9825 6.6177,0 11.9825,5.3648 11.9825,11.9825 z m -31.4814,0 c 0,6.6178 -5.3648,11.9826 -11.9826,11.9826 -6.6177,0 -11.9825,-5.3648 -11.9825,-11.9826 0,-6.6177 5.3648,-11.9825 11.9825,-11.9825 6.6178,0 11.9826,5.3648 11.9826,11.9825 z m -44.2943,-0.2061 c 0,7.9981 -6.4838,14.4819 -14.4819,14.4819 -7.9981,0 -14.4818,-6.4838 -14.4818,-14.4819 0,-7.9981 6.4837,-14.4819 14.4818,-14.4819 7.9981,0 14.4819,6.4838 14.4819,14.4819 z m 0,-54.1606 c 0,7.9982 -6.4838,14.4819 -14.4819,14.4819 -7.9981,0 -14.4818,-6.4837 -14.4818,-14.4819 0,-7.9981 6.4837,-14.4818 14.4818,-14.4818 7.9981,0 14.4819,6.4837 14.4819,14.4818 z m 0,-54.1583 c 0,7.9981 -6.4838,14.4819 -14.4819,14.4819 -7.9981,0 -14.4818,-6.4838 -14.4818,-14.4819 0,-7.9981 6.4837,-14.4819 14.4818,-14.4819 7.9981,0 14.4819,6.4838 14.4819,14.4819 z m 23.3295,64.192 0,-20 80.5317,0 0,20 -80.5317,0 m 0,-54.3863 0,-20 80.5317,0 0,20 -80.5317,10e-4 m 93.5717,146.3843 c 6.9326,1e-4 12.7992,-2.4 17.6,-7.2 5.3325,-4.7999 7.9992,-10.9333 8,-18.4 l 0,-153.6 c -8e-4,-6.9331 -2.6675,-12.7998 -8,-17.6 -4.8008,-5.3332 -10.6674,-7.9998 -17.6,-8 l -153.59999,0 c -7.46728,2e-4 -13.60065,2.6668 -18.40004,8 -4.80056,4.8002 -7.20062,10.6669 -7.19995,17.6 l 0,153.6 c -6.7e-4,7.4667 2.39939,13.6001 7.19995,18.4 4.79939,4.8 10.93276,7.2001 18.40004,7.2 l 153.59999,0 m -153.59999,25.6 c -14.40065,0 -26.66731,-4.7999 -36.8,-14.4 -9.60059,-10.1333 -14.40058,-22.4 -14.40001,-36.8 l 0,-153.6 c -5.7e-4,-13.8665 4.79942,-25.8665 14.40001,-36 10.13269,-10.1331 22.39935,-15.1997 36.8,-15.2 l 153.59999,0 c 13.8659,3e-4 25.8658,5.0669 36,15.2 10.1325,10.1335 15.1992,22.1335 15.2,36 l 0,153.6 c -8e-4,14.4 -5.0675,26.6667 -15.2,36.8 -10.1342,9.6001 -22.1341,14.4 -36,14.4 l -153.59999,0"
       inkscape:connector-curvature="0"
       transform="matrix(0.66964286,0,0,0.66964286,-624.53572,88.26249)" />
    <path
       inkscape:connector-curvature="0"
       d="m 140.74187,993.01442 c 0,4.43156 -3.59253,8.02398 -8.02401,8.02398 -4.43155,0 -8.02409,-3.59242 -8.02409,-8.02398 0,-4.43155 3.59254,-8.0241 8.02409,-8.0241 4.43148,0 8.02401,3.59255 8.02401,8.0241 z m -20.85272,0 c 0,4.43156 -3.59246,8.02398 -8.02401,8.02398 -4.43156,0 -8.02402,-3.59242 -8.02402,-8.02398 0,-4.43147 3.59246,-8.02401 8.02402,-8.02401 4.43155,0 8.02401,3.59254 8.02401,8.02401 z m -21.081317,0 c 0,4.43156 -3.592447,8.02398 -8.02401,8.02398 -4.431472,0 -8.02401,-3.59242 -8.02401,-8.02398 0,-4.43147 3.592538,-8.02401 8.02401,-8.02401 4.431563,0 8.02401,3.59254 8.02401,8.02401 z M 69.146491,992.8764 c 0,5.35587 -4.341832,9.6977 -9.697703,9.6977 -5.355837,0 -9.6976,-4.34183 -9.6976,-9.6977 0,-5.35587 4.341763,-9.6977 9.6976,-9.6977 5.355871,0 9.697703,4.34183 9.697703,9.6977 z m 0,-36.26822 c 0,5.35587 -4.341832,9.6977 -9.697703,9.6977 -5.355837,0 -9.6976,-4.34183 -9.6976,-9.6977 0,-5.35587 4.341763,-9.6977 9.6976,-9.6977 5.355871,0 9.697703,4.34183 9.697703,9.6977 z m 0,-36.2668 c 0,5.35587 -4.341832,9.6977 -9.697703,9.6977 -5.355837,0 -9.6976,-4.34183 -9.6976,-9.6977 0,-5.35586 4.341763,-9.69769 9.6976,-9.69769 5.355871,0 9.697703,4.34183 9.697703,9.69769 z m 15.62249,42.98575 0,-13.39286 53.927489,0 0,13.39286 -53.927489,0 m 0,-36.41939 0,-13.39286 53.927489,0 0,13.39286 -53.927489,6.7e-4 m 62.659609,98.02529 c 4.64232,10e-5 8.57083,-1.6072 11.78572,-4.8214 3.57086,-3.2143 5.35661,-7.3215 5.35712,-12.3215 l 0,-102.85722 c -5.1e-4,-4.64265 -1.78626,-8.57124 -5.35712,-11.78571 -3.21489,-3.57127 -7.1434,-5.35695 -11.78572,-5.35712 l -102.857148,0 c -5.000418,1.7e-4 -9.107584,1.78585 -12.321458,5.35712 -3.214661,3.21447 -4.821848,7.14306 -4.821397,11.78571 l 0,102.85722 c -4.51e-4,5 1.606736,9.1072 4.821397,12.3215 3.213874,3.2142 7.32104,4.8215 12.321458,4.8214 l 102.857148,0 m -102.857148,17.1428 c -9.643297,0 -17.857579,-3.2142 -24.642865,-9.6429 -6.428961,-6.7856 -9.643246,-15 -9.642861,-24.6428 l 0,-102.85722 c -3.85e-4,-9.28555 3.2139,-17.32128 9.642861,-24.1071 6.785286,-6.78557 14.999568,-10.1784 24.642865,-10.17857 l 102.857148,0 c 9.28514,1.7e-4 17.32079,3.393 24.10712,10.17857 6.78514,6.78582 10.17805,14.82155 10.17856,24.1071 l 0,102.85722 c -5.1e-4,9.6428 -3.39342,17.8572 -10.17856,24.6428 -6.78633,6.4287 -14.82198,9.6429 -24.10712,9.6429 l -102.857148,0"
       style="fill:#000000;fill-opacity:1;fill-rule:evenodd;stroke:none"
       id="path4196" />
  </g>
</svg>
