<?xml version="1.0" encoding="UTF-8" standalone="no"?>
<!-- Created with Inkscape (http://www.inkscape.org/) -->

<svg
   xmlns:dc="http://purl.org/dc/elements/1.1/"
   xmlns:cc="http://creativecommons.org/ns#"
   xmlns:rdf="http://www.w3.org/1999/02/22-rdf-syntax-ns#"
   xmlns:svg="http://www.w3.org/2000/svg"
   xmlns="http://www.w3.org/2000/svg"
   xmlns:sodipodi="http://sodipodi.sourceforge.net/DTD/sodipodi-0.dtd"
   xmlns:inkscape="http://www.inkscape.org/namespaces/inkscape"
   id="svg3229"
   height="16"
   width="16"
   version="1.0"
   inkscape:version="0.48.1 r9760"
   sodipodi:docname="cardapio-light.svg">
  <defs
     id="defs8" />
  <sodipodi:namedview
     pagecolor="#ffffff"
     bordercolor="#666666"
     borderopacity="1"
     objecttolerance="10"
     gridtolerance="10"
     guidetolerance="10"
     inkscape:pageopacity="0"
     inkscape:pageshadow="2"
     inkscape:window-width="1280"
     inkscape:window-height="776"
     id="namedview6"
     showgrid="true"
     showguides="true"
     inkscape:guide-bbox="true"
     inkscape:zoom="25.721009"
     inkscape:cx="20.243874"
     inkscape:cy="10.172897"
     inkscape:window-x="0"
     inkscape:window-y="24"
     inkscape:window-maximized="1"
     inkscape:current-layer="layer2">
    <inkscape:grid
       type="xygrid"
       id="grid3011"
       empspacing="5"
       visible="true"
       enabled="true"
       snapvisiblegridlinesonly="true" />
  </sodipodi:namedview>
  <metadata
     id="metadata9">
    <rdf:RDF>
      <cc:Work
         rdf:about="">
        <dc:format>image/svg+xml</dc:format>
        <dc:type
           rdf:resource="http://purl.org/dc/dcmitype/StillImage" />
        <dc:title></dc:title>
      </cc:Work>
    </rdf:RDF>
  </metadata>
  <g
     inkscape:groupmode="layer"
     id="layer1"
     inkscape:label="Background"
     sodipodi:insensitive="true"
     style="display:none">
    <rect
       y="0"
       x="0"
       height="16"
       width="16"
       id="rect3912"
       style="fill:#4d4d4d;fill-opacity:1" />
    <rect
       style="fill:#b3b3b3;fill-opacity:1"
       id="rect3910"
       width="16"
       height="16"
       x="16"
       y="0" />
  </g>
  <g
     inkscape:groupmode="layer"
     id="layer2"
     inkscape:label="Icons"
     style="display:inline">
    <path
       style="opacity:0.3;fill:#ffffff;fill-opacity:1"
       d="M 3,2 C 1.892,2 1,2.892 1,4 l 0,9 c 0,1.108 0.892,2 2,2 l 9,0 c 1.108,0 2,-0.892 2,-2 L 14,4 C 14,2.892 13.108,2 12,2 z m 0,1 9,0 c 0.554,0 1,0.446 1,1 l 0,9 c 0,0.554 -0.446,1 -1,1 L 3,14 C 2.446,14 2,13.554 2,13 L 2,4 C 2,3.446 2.446,3 3,3 z M 4.5,4.8125 C 4.113401,4.8125 3.8125,5.113401 3.8125,5.5 3.8125,5.886599 4.113401,6.1875 4.5,6.1875 4.886599,6.1875 5.1875,5.886599 5.1875,5.5 5.1875,5.113401 4.886599,4.8125 4.5,4.8125 z M 7,5 7,6 11,6 11,5 z M 4.5,7.8125 C 4.113401,7.8125 3.8125,8.113401 3.8125,8.5 3.8125,8.886599 4.113401,9.1875 4.5,9.1875 4.886599,9.1875 5.1875,8.886599 5.1875,8.5 5.1875,8.113401 4.886599,7.8125 4.5,7.8125 z M 7,8 7,9 11,9 11,8 z m -2.5,2.8125 c -0.386599,0 -0.6875,0.300901 -0.6875,0.6875 0,0.386599 0.300901,0.6875 0.6875,0.6875 0.386599,0 0.6875,-0.300901 0.6875,-0.6875 0,-0.386599 -0.300901,-0.6875 -0.6875,-0.6875 z M 7.5,11 C 7.223858,11 7,11.223858 7,11.5 7,11.776142 7.223858,12 7.5,12 7.776142,12 8,11.776142 8,11.5 8,11.223858 7.776142,11 7.5,11 z M 9,11 C 8.723858,11 8.5,11.223858 8.5,11.5 8.5,11.776142 8.723858,12 9,12 9.276142,12 9.5,11.776142 9.5,11.5 9.5,11.223858 9.276142,11 9,11 z m 1.5,0 C 10.223858,11 10,11.223858 10,11.5 10,11.776142 10.223858,12 10.5,12 10.776142,12 11,11.776142 11,11.5 11,11.223858 10.776142,11 10.5,11 z"
       id="path3906"
       inkscape:connector-curvature="0"
       sodipodi:nodetypes="ssssssssssssssssssssssscccccssssscccccssssssssssssssssssss" />
    <path
       sodipodi:nodetypes="ssssssssssssssssssssssscccccssssscccccssssssssssssssssssss"
       inkscape:connector-curvature="0"
       id="path3908"
       d="M 3,1 C 1.892,1 1,1.892 1,3 l 0,9 c 0,1.108 0.892,2 2,2 l 9,0 c 1.108,0 2,-0.892 2,-2 L 14,3 C 14,1.892 13.108,1 12,1 z m 0,1 9,0 c 0.554,0 1,0.446 1,1 l 0,9 c 0,0.554 -0.446,1 -1,1 L 3,13 C 2.446,13 2,12.554 2,12 L 2,3 C 2,2.446 2.446,2 3,2 z M 4.5,3.8125 C 4.113401,3.8125 3.8125,4.113401 3.8125,4.5 3.8125,4.886599 4.113401,5.1875 4.5,5.1875 4.886599,5.1875 5.1875,4.886599 5.1875,4.5 5.1875,4.113401 4.886599,3.8125 4.5,3.8125 z M 7,4 7,5 11,5 11,4 z M 4.5,6.8125 C 4.113401,6.8125 3.8125,7.113401 3.8125,7.5 3.8125,7.886599 4.113401,8.1875 4.5,8.1875 4.886599,8.1875 5.1875,7.886599 5.1875,7.5 5.1875,7.113401 4.886599,6.8125 4.5,6.8125 z M 7,7 7,8 11,8 11,7 z M 4.5,9.8125 c -0.386599,0 -0.6875,0.300901 -0.6875,0.6875 0,0.386599 0.300901,0.6875 0.6875,0.6875 0.386599,0 0.6875,-0.300901 0.6875,-0.6875 C 5.1875,10.113401 4.886599,9.8125 4.5,9.8125 z M 7.5,10 C 7.223858,10 7,10.223858 7,10.5 7,10.776142 7.223858,11 7.5,11 7.776142,11 8,10.776142 8,10.5 8,10.223858 7.776142,10 7.5,10 z M 9,10 C 8.723858,10 8.5,10.223858 8.5,10.5 8.5,10.776142 8.723858,11 9,11 9.276142,11 9.5,10.776142 9.5,10.5 9.5,10.223858 9.276142,10 9,10 z m 1.5,0 C 10.223858,10 10,10.223858 10,10.5 10,10.776142 10.223858,11 10.5,11 10.776142,11 11,10.776142 11,10.5 11,10.223858 10.776142,10 10.5,10 z"
       style="fill:#3c3c3c;fill-opacity:1" />
  </g>
</svg>
