<?xml version="1.0" encoding="UTF-8" standalone="no"?>
<!-- Created with Inkscape (http://www.inkscape.org/) -->

<svg
   xmlns:dc="http://purl.org/dc/elements/1.1/"
   xmlns:cc="http://creativecommons.org/ns#"
   xmlns:rdf="http://www.w3.org/1999/02/22-rdf-syntax-ns#"
   xmlns:svg="http://www.w3.org/2000/svg"
   xmlns="http://www.w3.org/2000/svg"
   xmlns:sodipodi="http://sodipodi.sourceforge.net/DTD/sodipodi-0.dtd"
   xmlns:inkscape="http://www.inkscape.org/namespaces/inkscape"
   width="64"
   height="64"
   id="svg2"
   version="1.1"
   inkscape:version="0.48.1 r9760"
   sodipodi:docname="cardapio-dark256.svg"
   inkscape:export-filename="/home/jancborchardt/jancborchardt/Cardapio/cardapio-dark256.png"
   inkscape:export-xdpi="90"
   inkscape:export-ydpi="90">
  <defs
     id="defs4">
    <filter
       inkscape:collect="always"
       id="filter4028"
       x="-0.12496875"
       width="1.2499375"
       y="-0.12496873"
       height="1.2499375"
       color-interpolation-filters="sRGB">
      <feGaussianBlur
         inkscape:collect="always"
         stdDeviation="13.33"
         id="feGaussianBlur4030" />
    </filter>
    <filter
       inkscape:collect="always"
       id="filter3963"
       color-interpolation-filters="sRGB">
      <feGaussianBlur
         inkscape:collect="always"
         stdDeviation="6.4"
         id="feGaussianBlur3965" />
    </filter>
  </defs>
  <sodipodi:namedview
     id="base"
     pagecolor="#ffffff"
     bordercolor="#666666"
     borderopacity="1.0"
     inkscape:pageopacity="0.0"
     inkscape:pageshadow="2"
     inkscape:zoom="0.61871843"
     inkscape:cx="283.82552"
     inkscape:cy="-91.16025"
     inkscape:document-units="px"
     inkscape:current-layer="layer1"
     showgrid="false"
     inkscape:window-width="1280"
     inkscape:window-height="776"
     inkscape:window-x="0"
     inkscape:window-y="24"
     inkscape:window-maximized="1"
     showguides="true"
     inkscape:guide-bbox="true" />
  <metadata
     id="metadata7">
    <rdf:RDF>
      <cc:Work
         rdf:about="">
        <dc:format>image/svg+xml</dc:format>
        <dc:type
           rdf:resource="http://purl.org/dc/dcmitype/StillImage" />
        <dc:title></dc:title>
      </cc:Work>
    </rdf:RDF>
  </metadata>
  <g
     inkscape:label="Layer 1"
     inkscape:groupmode="layer"
     id="layer1"
     transform="translate(0,-988.36218)">
    <g
       style="font-size:40px;font-style:normal;font-weight:normal;line-height:125%;letter-spacing:0px;word-spacing:0px;fill:#000000;fill-opacity:1;stroke:none;font-family:Sans"
       id="text2985"
       transform="matrix(1.1160179,0,0,1.1160179,-14.849729,-107.24284)" />
    <g
       transform="matrix(1.1160179,0,0,1.1160179,-14.849729,-575.97034)"
       style="font-size:40px;font-style:normal;font-weight:normal;line-height:125%;letter-spacing:0px;word-spacing:0px;fill:#000000;fill-opacity:1;stroke:none;font-family:Sans"
       id="text2985-5" />
    <g
       id="g3881"
       style="font-size:40px;font-style:normal;font-weight:normal;line-height:125%;letter-spacing:0px;word-spacing:0px;fill:#000000;fill-opacity:1;stroke:none;font-family:Sans"
       transform="matrix(1.1160179,0,0,1.1160179,766.36281,-107.24284)" />
    <g
       id="g3889"
       style="font-size:40px;font-style:normal;font-weight:normal;line-height:125%;letter-spacing:0px;word-spacing:0px;fill:#000000;fill-opacity:1;stroke:none;font-family:Sans"
       transform="matrix(1.1160179,0,0,1.1160179,766.36281,-575.97034)" />
    <path
       id="path4172"
       style="fill:#ffffff;fill-opacity:0.47083333;fill-rule:evenodd;stroke:none;filter:url(#filter3963)"
       d="m 1142.8145,1351.0962 c 0,6.6178 -5.3648,11.9826 -11.9825,11.9826 -6.6178,0 -11.9826,-5.3648 -11.9826,-11.9826 0,-6.6178 5.3648,-11.9826 11.9826,-11.9826 6.6177,0 11.9825,5.3648 11.9825,11.9826 z m -31.14,0 c 0,6.6178 -5.3648,11.9826 -11.9825,11.9826 -6.6179,0 -11.9826,-5.3648 -11.9826,-11.9826 0,-6.6177 5.3647,-11.9825 11.9826,-11.9825 6.6177,0 11.9825,5.3648 11.9825,11.9825 z m -31.4814,0 c 0,6.6178 -5.3648,11.9826 -11.9826,11.9826 -6.6177,0 -11.9825,-5.3648 -11.9825,-11.9826 0,-6.6177 5.3648,-11.9825 11.9825,-11.9825 6.6178,0 11.9826,5.3648 11.9826,11.9825 z m -44.2943,-0.2061 c 0,7.9981 -6.4838,14.4819 -14.4819,14.4819 -7.9981,0 -14.4818,-6.4838 -14.4818,-14.4819 0,-7.9981 6.4837,-14.4819 14.4818,-14.4819 7.9981,0 14.4819,6.4838 14.4819,14.4819 z m 0,-54.1606 c 0,7.9982 -6.4838,14.4819 -14.4819,14.4819 -7.9981,0 -14.4818,-6.4837 -14.4818,-14.4819 0,-7.9981 6.4837,-14.4818 14.4818,-14.4818 7.9981,0 14.4819,6.4837 14.4819,14.4818 z m 0,-54.1583 c 0,7.9981 -6.4838,14.4819 -14.4819,14.4819 -7.9981,0 -14.4818,-6.4838 -14.4818,-14.4819 0,-7.9981 6.4837,-14.4819 14.4818,-14.4819 7.9981,0 14.4819,6.4838 14.4819,14.4819 z m 23.3295,64.192 0,-20 80.5317,0 0,20 -80.5317,0 m 0,-54.3863 0,-20 80.5317,0 0,20 -80.5317,10e-4 m 93.5717,146.3843 c 6.9326,1e-4 12.7992,-2.4 17.6,-7.2 5.3325,-4.7999 7.9992,-10.9333 8,-18.4 l 0,-153.6 c -8e-4,-6.9331 -2.6675,-12.7998 -8,-17.6 -4.8008,-5.3332 -10.6674,-7.9998 -17.6,-8 l -153.59999,0 c -7.46728,2e-4 -13.60065,2.6668 -18.40004,8 -4.80056,4.8002 -7.20062,10.6669 -7.19995,17.6 l 0,153.6 c -6.7e-4,7.4667 2.39939,13.6001 7.19995,18.4 4.79939,4.8 10.93276,7.2001 18.40004,7.2 l 153.59999,0 m -153.59999,25.6 c -14.40065,0 -26.66731,-4.7999 -36.8,-14.4 -9.60059,-10.1333 -14.40058,-22.4 -14.40001,-36.8 l 0,-153.6 c -5.7e-4,-13.8665 4.79942,-25.8665 14.40001,-36 10.13269,-10.1331 22.39935,-15.1997 36.8,-15.2 l 153.59999,0 c 13.8659,3e-4 25.8658,5.0669 36,15.2 10.1325,10.1335 15.1992,22.1335 15.2,36 l 0,153.6 c -8e-4,14.4 -5.0675,26.6667 -15.2,36.8 -10.1342,9.6001 -22.1341,14.4 -36,14.4 l -153.59999,0"
       inkscape:connector-curvature="0"
       transform="matrix(0.22321429,0,0,0.22321429,-208.17857,730.99561)" />
    <path
       inkscape:connector-curvature="0"
       d="m 46.913959,1032.5796 c 0,1.4772 -1.19751,2.6747 -2.67467,2.6747 -1.477185,0 -2.674697,-1.1975 -2.674697,-2.6747 0,-1.4772 1.197512,-2.6747 2.674697,-2.6747 1.47716,0 2.67467,1.1975 2.67467,2.6747 z m -6.950907,0 c 0,1.4772 -1.197485,2.6747 -2.67467,2.6747 -1.477188,0 -2.674673,-1.1975 -2.674673,-2.6747 0,-1.4772 1.197485,-2.6747 2.674673,-2.6747 1.477185,0 2.67467,1.1975 2.67467,2.6747 z m -7.027105,0 c 0,1.4772 -1.197483,2.6747 -2.67467,2.6747 -1.477158,0 -2.67467,-1.1975 -2.67467,-2.6747 0,-1.4772 1.197512,-2.6747 2.67467,-2.6747 1.477187,0 2.67467,1.1975 2.67467,2.6747 z m -9.887114,-0.046 c 0,1.7853 -1.447278,3.2326 -3.232568,3.2326 -1.785279,0 -3.232533,-1.4473 -3.232533,-3.2326 0,-1.7853 1.447254,-3.2326 3.232533,-3.2326 1.78529,0 3.232568,1.4473 3.232568,3.2326 z m 0,-12.0894 c 0,1.7853 -1.447278,3.2325 -3.232568,3.2325 -1.785279,0 -3.232533,-1.4472 -3.232533,-3.2325 0,-1.7853 1.447254,-3.2326 3.232533,-3.2326 1.78529,0 3.232568,1.4473 3.232568,3.2326 z m 0,-12.089 c 0,1.7853 -1.447278,3.2326 -3.232568,3.2326 -1.785279,0 -3.232533,-1.4473 -3.232533,-3.2326 0,-1.7852 1.447254,-3.2325 3.232533,-3.2325 1.78529,0 3.232568,1.4473 3.232568,3.2325 z m 5.207496,14.3286 0,-4.4643 17.97583,0 0,4.4643 -17.97583,0 m 0,-12.1398 0,-4.4643 17.97583,0 0,4.4643 -17.97583,3e-4 m 20.886538,32.6751 c 1.54744,0 2.856942,-0.5358 3.928572,-1.6072 1.190285,-1.0714 1.785538,-2.4405 1.785705,-4.1072 l 0,-34.2857 c -1.67e-4,-1.5475 -0.59542,-2.8571 -1.785705,-3.92856 -1.07163,-1.19042 -2.381132,-1.78565 -3.928572,-1.78571 l -34.285717,0 c -1.666806,6e-5 -3.035862,0.59529 -4.107153,1.78571 -1.0715534,1.07146 -1.6072827,2.38106 -1.6071322,3.92856 l 0,34.2857 c -1.505e-4,1.6667 0.5355788,3.0358 1.6071322,4.1072 1.071291,1.0714 2.440347,1.6072 4.107153,1.6072 l 34.285717,0 m -34.285717,5.7142 c -3.214433,0 -5.9525267,-1.0714 -8.2142887,-3.2143 -2.142987,-2.2618 -3.2144152,-5 -3.214287,-8.2143 l 0,-34.2857 c -1.282e-4,-3.0952 1.0713,-5.77375 3.214287,-8.03569 2.261762,-2.26186 4.9998557,-3.3928 8.2142887,-3.39286 l 34.285717,0 c 3.095045,6e-5 5.773595,1.131 8.035705,3.39286 2.261715,2.26194 3.392685,4.94049 3.392852,8.03569 l 0,34.2857 c -1.67e-4,3.2143 -1.131137,5.9525 -3.392852,8.2143 -2.26211,2.1429 -4.94066,3.2143 -8.035705,3.2143 l -34.285717,0"
       style="fill:#000000;fill-opacity:1;fill-rule:evenodd;stroke:none"
       id="path4196" />
  </g>
</svg>
