<?xml version="1.0" encoding="UTF-8" standalone="no"?>
<!-- Created with Inkscape (http://www.inkscape.org/) -->

<svg
   xmlns:dc="http://purl.org/dc/elements/1.1/"
   xmlns:cc="http://creativecommons.org/ns#"
   xmlns:rdf="http://www.w3.org/1999/02/22-rdf-syntax-ns#"
   xmlns:svg="http://www.w3.org/2000/svg"
   xmlns="http://www.w3.org/2000/svg"
   xmlns:sodipodi="http://sodipodi.sourceforge.net/DTD/sodipodi-0.dtd"
   xmlns:inkscape="http://www.inkscape.org/namespaces/inkscape"
   width="32"
   height="32"
   id="svg2"
   version="1.1"
   inkscape:version="0.48.1 r9760"
   sodipodi:docname="cardapio-light48.svg"
   inkscape:export-filename="/home/jancborchardt/jancborchardt/Cardapio/cardapio-light48.png"
   inkscape:export-xdpi="90"
   inkscape:export-ydpi="90">
  <defs
     id="defs4">
    <filter
       inkscape:collect="always"
       id="filter3781"
       color-interpolation-filters="sRGB">
      <feGaussianBlur
         inkscape:collect="always"
         stdDeviation="6.4"
         id="feGaussianBlur3783" />
    </filter>
  </defs>
  <sodipodi:namedview
     id="base"
     pagecolor="#ffffff"
     bordercolor="#666666"
     borderopacity="1.0"
     inkscape:pageopacity="0.0"
     inkscape:pageshadow="2"
     inkscape:zoom="0.61871843"
     inkscape:cx="82.603127"
     inkscape:cy="-91.16025"
     inkscape:document-units="px"
     inkscape:current-layer="layer1"
     showgrid="false"
     inkscape:window-width="1280"
     inkscape:window-height="776"
     inkscape:window-x="0"
     inkscape:window-y="24"
     inkscape:window-maximized="1"
     showguides="true"
     inkscape:guide-bbox="true" />
  <metadata
     id="metadata7">
    <rdf:RDF>
      <cc:Work
         rdf:about="">
        <dc:format>image/svg+xml</dc:format>
        <dc:type
           rdf:resource="http://purl.org/dc/dcmitype/StillImage" />
        <dc:title></dc:title>
      </cc:Work>
    </rdf:RDF>
  </metadata>
  <g
     inkscape:label="Layer 1"
     inkscape:groupmode="layer"
     id="layer1"
     transform="translate(0,-1020.3622)">
    <g
       style="font-size:40px;font-style:normal;font-weight:normal;line-height:125%;letter-spacing:0px;word-spacing:0px;fill:#000000;fill-opacity:1;stroke:none;font-family:Sans"
       id="text2985"
       transform="matrix(0.75,0,0,0.75,-2.30002e-6,263.09054)" />
    <g
       transform="matrix(0.75,0,0,0.75,-2.30002e-6,-51.909441)"
       style="font-size:40px;font-style:normal;font-weight:normal;line-height:125%;letter-spacing:0px;word-spacing:0px;fill:#000000;fill-opacity:1;stroke:none;font-family:Sans"
       id="text2985-5" />
    <g
       id="g3881"
       style="font-size:40px;font-style:normal;font-weight:normal;line-height:125%;letter-spacing:0px;word-spacing:0px;fill:#000000;fill-opacity:1;stroke:none;font-family:Sans"
       transform="matrix(0.75,0,0,0.75,525,263.09054)" />
    <g
       id="g3889"
       style="font-size:40px;font-style:normal;font-weight:normal;line-height:125%;letter-spacing:0px;word-spacing:0px;fill:#000000;fill-opacity:1;stroke:none;font-family:Sans"
       transform="matrix(0.75,0,0,0.75,525,-51.909441)" />
    <path
       inkscape:connector-curvature="0"
       d="m 342.81452,1351.0962 c 0,6.6178 -5.36478,11.9826 -11.98255,11.9826 -6.61781,0 -11.98258,-5.3648 -11.98258,-11.9826 0,-6.6178 5.36477,-11.9826 11.98258,-11.9826 6.61777,0 11.98255,5.3648 11.98255,11.9826 z m -31.14002,0 c 0,6.6178 -5.36478,11.9826 -11.98255,11.9826 -6.61781,0 -11.98258,-5.3648 -11.98258,-11.9826 0,-6.6177 5.36477,-11.9825 11.98258,-11.9825 6.61777,0 11.98255,5.3648 11.98255,11.9825 z m -31.48138,0 c 0,6.6178 -5.36478,11.9826 -11.98259,11.9826 -6.61777,0 -11.98255,-5.3648 -11.98255,-11.9826 0,-6.6177 5.36478,-11.9825 11.98255,-11.9825 6.61781,0 11.98259,5.3648 11.98259,11.9825 z m -44.2943,-0.2061 c 0,7.9981 -6.48377,14.4819 -14.48188,14.4819 -7.99811,0 -14.48188,-6.4838 -14.48188,-14.4819 0,-7.9981 6.48377,-14.4819 14.48188,-14.4819 7.99811,0 14.48188,6.4838 14.48188,14.4819 z m 0,-54.1606 c 0,7.9982 -6.48377,14.4819 -14.48188,14.4819 -7.99811,0 -14.48188,-6.4837 -14.48188,-14.4819 0,-7.9981 6.48377,-14.4818 14.48188,-14.4818 7.99811,0 14.48188,6.4837 14.48188,14.4818 z m 0,-54.1583 c 0,7.9981 -6.48377,14.4819 -14.48188,14.4819 -7.99811,0 -14.48188,-6.4838 -14.48188,-14.4819 0,-7.9981 6.48377,-14.4819 14.48188,-14.4819 7.99811,0 14.48188,6.4838 14.48188,14.4819 z m 23.32944,64.192 0,-20 80.53177,0 0,20 -80.53177,0 m 0,-54.3863 0,-20 80.53177,0 0,20 -80.53177,10e-4 m 93.57173,146.3863 c 6.93257,10e-5 12.79922,-2.4 17.6,-7.2 5.33254,-4.7999 7.99919,-10.9333 8.00002,-18.4 l 0,-153.6 c -8.3e-4,-6.9331 -2.66748,-12.7998 -8.00002,-17.6 -4.80078,-5.3332 -10.66743,-7.9998 -17.6,-8 l -153.59998,0 c -7.46728,2e-4 -13.60065,2.6668 -18.40004,8 -4.80056,4.8002 -7.20062,10.6669 -7.19995,17.6 l 0,153.6 c -6.7e-4,7.4667 2.39939,13.6001 7.19995,18.4 4.79939,4.8 10.93276,7.2001 18.40004,7.2 l 153.59998,0 m -153.59998,25.6 c -14.40065,0 -26.66731,-4.7999 -36.8,-14.4 -9.60059,-10.1333 -14.40058,-22.4 -14.40001,-36.8 l 0,-153.6 c -5.7e-4,-13.8665 4.79942,-25.8665 14.40001,-36 10.13269,-10.1331 22.39935,-15.1997 36.8,-15.2 l 153.59998,0 c 13.86587,3e-4 25.86585,5.0669 35.99997,15.2 10.13253,10.1335 15.19921,22.1335 15.20004,36 l 0,153.6 c -8.3e-4,14.4 -5.06751,26.6667 -15.20004,36.8 -10.13412,9.6001 -22.1341,14.4 -35.99997,14.4 l -153.59998,0"
       style="fill:#000000;fill-opacity:0.35294118;fill-rule:evenodd;stroke:none;filter:url(#filter3781)"
       id="path4160"
       transform="matrix(0.11160714,0,0,0.11160714,-14.80358,891.67869)" />
    <path
       id="path3135"
       style="fill:#ffffff;fill-opacity:1;fill-rule:evenodd;stroke:none"
       d="m 23.456968,1042.4707 c 0,0.7386 -0.59875,1.3373 -1.337333,1.3373 -0.738593,0 -1.337345,-0.5987 -1.337345,-1.3373 0,-0.7386 0.598752,-1.3374 1.337345,-1.3374 0.738583,0 1.337333,0.5988 1.337333,1.3374 z m -3.475446,0 c 0,0.7386 -0.598752,1.3373 -1.337332,1.3373 -0.738607,0 -1.337345,-0.5987 -1.337345,-1.3373 0,-0.7386 0.598738,-1.3374 1.337345,-1.3374 0.73858,0 1.337332,0.5988 1.337332,1.3374 z m -3.513549,0 c 0,0.7386 -0.598751,1.3373 -1.337344,1.3373 -0.738583,0 -1.337333,-0.5987 -1.337333,-1.3373 0,-0.7386 0.59875,-1.3374 1.337333,-1.3374 0.738593,0 1.337344,0.5988 1.337344,1.3374 z m -4.94356,-0.023 c 0,0.8927 -0.723638,1.6163 -1.6162836,1.6163 -0.8926447,0 -1.6162727,-0.7236 -1.6162727,-1.6163 0,-0.8926 0.723628,-1.6162 1.6162727,-1.6162 0.8926456,0 1.6162836,0.7236 1.6162836,1.6162 z m 0,-6.0447 c 0,0.8927 -0.723638,1.6163 -1.6162836,1.6163 -0.8926447,0 -1.6162727,-0.7236 -1.6162727,-1.6163 0,-0.8926 0.723628,-1.6162 1.6162727,-1.6162 0.8926456,0 1.6162836,0.7236 1.6162836,1.6162 z m 0,-6.0444 c 0,0.8926 -0.723638,1.6163 -1.6162836,1.6163 -0.8926447,0 -1.6162727,-0.7237 -1.6162727,-1.6163 0,-0.8927 0.723628,-1.6163 1.6162727,-1.6163 0.8926456,0 1.6162836,0.7236 1.6162836,1.6163 z m 2.603737,7.1643 0,-2.2322 8.987915,0 0,2.2322 -8.987915,0 m 0,-6.0699 0,-2.2322 8.987915,0 0,2.2322 -8.987915,1e-4 m 10.44327,16.3375 c 0.77373,0 1.428483,-0.2678 1.964286,-0.8036 0.595145,-0.5357 0.892769,-1.2202 0.892859,-2.0535 l 0,-17.1429 c -9e-5,-0.7738 -0.297714,-1.4285 -0.892859,-1.9642 -0.535803,-0.5953 -1.190556,-0.8929 -1.964286,-0.8929 l -17.142854,0 c -0.8334031,0 -1.5179305,0.2976 -2.0535761,0.8929 -0.5357769,0.5357 -0.8036416,1.1904 -0.8035661,1.9642 l 0,17.1429 c -7.55e-5,0.8333 0.2677892,1.5178 0.8035661,2.0535 0.5356456,0.5358 1.220173,0.8036 2.0535761,0.8036 l 17.142854,0 m -17.142854,2.8572 c -1.6072161,0 -2.9762631,-0.5357 -4.107144,-1.6072 -1.0714936,-1.1309 -1.6072075,-2.5 -1.6071433,-4.1071 l 0,-17.1429 c -6.42e-5,-1.5476 0.5356497,-2.8868 1.6071433,-4.0178 1.1308809,-1.131 2.4999279,-1.6964 4.107144,-1.6964 l 17.142854,0 c 1.547535,0 2.88681,0.5654 4.017858,1.6964 1.13086,1.131 1.69634,2.4702 1.696429,4.0178 l 0,17.1429 c -8.9e-5,1.6071 -0.565569,2.9762 -1.696429,4.1071 -1.131048,1.0715 -2.470323,1.6072 -4.017858,1.6072 l -17.142854,0"
       inkscape:connector-curvature="0" />
  </g>
</svg>
