<?xml version="1.0" encoding="UTF-8" standalone="no"?>
<!-- Created with Inkscape (http://www.inkscape.org/) -->

<svg
   xmlns:dc="http://purl.org/dc/elements/1.1/"
   xmlns:cc="http://creativecommons.org/ns#"
   xmlns:rdf="http://www.w3.org/1999/02/22-rdf-syntax-ns#"
   xmlns:svg="http://www.w3.org/2000/svg"
   xmlns="http://www.w3.org/2000/svg"
   xmlns:sodipodi="http://sodipodi.sourceforge.net/DTD/sodipodi-0.dtd"
   xmlns:inkscape="http://www.inkscape.org/namespaces/inkscape"
   width="192"
   height="192"
   id="svg2"
   version="1.1"
   inkscape:version="0.48.1 r9760"
   sodipodi:docname="cardapio-light256.svg"
   inkscape:export-filename="/home/jancborchardt/jancborchardt/Cardapio/cardapio-light256.png"
   inkscape:export-xdpi="90"
   inkscape:export-ydpi="90">
  <defs
     id="defs4">
    <filter
       inkscape:collect="always"
       id="filter3781"
       color-interpolation-filters="sRGB">
      <feGaussianBlur
         inkscape:collect="always"
         stdDeviation="6.4"
         id="feGaussianBlur3783" />
    </filter>
  </defs>
  <sodipodi:namedview
     id="base"
     pagecolor="#ffffff"
     bordercolor="#666666"
     borderopacity="1.0"
     inkscape:pageopacity="0.0"
     inkscape:pageshadow="2"
     inkscape:zoom="0.61871843"
     inkscape:cx="82.603127"
     inkscape:cy="-91.16025"
     inkscape:document-units="px"
     inkscape:current-layer="layer1"
     showgrid="false"
     inkscape:window-width="1280"
     inkscape:window-height="776"
     inkscape:window-x="0"
     inkscape:window-y="24"
     inkscape:window-maximized="1"
     showguides="true"
     inkscape:guide-bbox="true" />
  <metadata
     id="metadata7">
    <rdf:RDF>
      <cc:Work
         rdf:about="">
        <dc:format>image/svg+xml</dc:format>
        <dc:type
           rdf:resource="http://purl.org/dc/dcmitype/StillImage" />
        <dc:title></dc:title>
      </cc:Work>
    </rdf:RDF>
  </metadata>
  <g
     inkscape:label="Layer 1"
     inkscape:groupmode="layer"
     id="layer1"
     transform="translate(0,-860.36218)">
    <g
       style="font-size:40px;font-style:normal;font-weight:normal;line-height:125%;letter-spacing:0px;word-spacing:0px;fill:#000000;fill-opacity:1;stroke:none;font-family:Sans"
       id="text2985"
       transform="matrix(0.75,0,0,0.75,-2.30002e-6,263.09054)" />
    <g
       transform="matrix(0.75,0,0,0.75,-2.30002e-6,-51.909441)"
       style="font-size:40px;font-style:normal;font-weight:normal;line-height:125%;letter-spacing:0px;word-spacing:0px;fill:#000000;fill-opacity:1;stroke:none;font-family:Sans"
       id="text2985-5" />
    <g
       id="g3881"
       style="font-size:40px;font-style:normal;font-weight:normal;line-height:125%;letter-spacing:0px;word-spacing:0px;fill:#000000;fill-opacity:1;stroke:none;font-family:Sans"
       transform="matrix(0.75,0,0,0.75,525,263.09054)" />
    <g
       id="g3889"
       style="font-size:40px;font-style:normal;font-weight:normal;line-height:125%;letter-spacing:0px;word-spacing:0px;fill:#000000;fill-opacity:1;stroke:none;font-family:Sans"
       transform="matrix(0.75,0,0,0.75,525,-51.909441)" />
    <path
       inkscape:connector-curvature="0"
       d="m 342.81452,1351.0962 c 0,6.6178 -5.36478,11.9826 -11.98255,11.9826 -6.61781,0 -11.98258,-5.3648 -11.98258,-11.9826 0,-6.6178 5.36477,-11.9826 11.98258,-11.9826 6.61777,0 11.98255,5.3648 11.98255,11.9826 z m -31.14002,0 c 0,6.6178 -5.36478,11.9826 -11.98255,11.9826 -6.61781,0 -11.98258,-5.3648 -11.98258,-11.9826 0,-6.6177 5.36477,-11.9825 11.98258,-11.9825 6.61777,0 11.98255,5.3648 11.98255,11.9825 z m -31.48138,0 c 0,6.6178 -5.36478,11.9826 -11.98259,11.9826 -6.61777,0 -11.98255,-5.3648 -11.98255,-11.9826 0,-6.6177 5.36478,-11.9825 11.98255,-11.9825 6.61781,0 11.98259,5.3648 11.98259,11.9825 z m -44.2943,-0.2061 c 0,7.9981 -6.48377,14.4819 -14.48188,14.4819 -7.99811,0 -14.48188,-6.4838 -14.48188,-14.4819 0,-7.9981 6.48377,-14.4819 14.48188,-14.4819 7.99811,0 14.48188,6.4838 14.48188,14.4819 z m 0,-54.1606 c 0,7.9982 -6.48377,14.4819 -14.48188,14.4819 -7.99811,0 -14.48188,-6.4837 -14.48188,-14.4819 0,-7.9981 6.48377,-14.4818 14.48188,-14.4818 7.99811,0 14.48188,6.4837 14.48188,14.4818 z m 0,-54.1583 c 0,7.9981 -6.48377,14.4819 -14.48188,14.4819 -7.99811,0 -14.48188,-6.4838 -14.48188,-14.4819 0,-7.9981 6.48377,-14.4819 14.48188,-14.4819 7.99811,0 14.48188,6.4838 14.48188,14.4819 z m 23.32944,64.192 0,-20 80.53177,0 0,20 -80.53177,0 m 0,-54.3863 0,-20 80.53177,0 0,20 -80.53177,10e-4 m 93.57173,146.3863 c 6.93257,10e-5 12.79922,-2.4 17.6,-7.2 5.33254,-4.7999 7.99919,-10.9333 8.00002,-18.4 l 0,-153.6 c -8.3e-4,-6.9331 -2.66748,-12.7998 -8.00002,-17.6 -4.80078,-5.3332 -10.66743,-7.9998 -17.6,-8 l -153.59998,0 c -7.46728,2e-4 -13.60065,2.6668 -18.40004,8 -4.80056,4.8002 -7.20062,10.6669 -7.19995,17.6 l 0,153.6 c -6.7e-4,7.4667 2.39939,13.6001 7.19995,18.4 4.79939,4.8 10.93276,7.2001 18.40004,7.2 l 153.59998,0 m -153.59998,25.6 c -14.40065,0 -26.66731,-4.7999 -36.8,-14.4 -9.60059,-10.1333 -14.40058,-22.4 -14.40001,-36.8 l 0,-153.6 c -5.7e-4,-13.8665 4.79942,-25.8665 14.40001,-36 10.13269,-10.1331 22.39935,-15.1997 36.8,-15.2 l 153.59998,0 c 13.86587,3e-4 25.86585,5.0669 35.99997,15.2 10.13253,10.1335 15.19921,22.1335 15.20004,36 l 0,153.6 c -8.3e-4,14.4 -5.06751,26.6667 -15.20004,36.8 -10.13412,9.6001 -22.1341,14.4 -35.99997,14.4 l -153.59998,0"
       style="fill:#000000;fill-opacity:0.35294118;fill-rule:evenodd;stroke:none;filter:url(#filter3781)"
       id="path4160"
       transform="matrix(0.66964286,0,0,0.66964286,-88.821437,88.261157)" />
    <path
       id="path3135"
       style="fill:#ffffff;fill-opacity:1;fill-rule:evenodd;stroke:none"
       d="m 140.74185,993.01308 c 0,4.43157 -3.5925,8.02402 -8.024,8.02402 -4.43156,0 -8.02407,-3.59245 -8.02407,-8.02402 0,-4.43155 3.59251,-8.02409 8.02407,-8.02409 4.4315,0 8.024,3.59254 8.024,8.02409 z m -20.85268,0 c 0,4.43157 -3.59251,8.02402 -8.02399,8.02402 -4.43164,0 -8.02407,-3.59245 -8.02407,-8.02402 0,-4.43147 3.59243,-8.02401 8.02407,-8.02401 4.43148,0 8.02399,3.59254 8.02399,8.02401 z m -21.081292,0 c 0,4.43157 -3.592508,8.02402 -8.024063,8.02402 -4.431502,0 -8.023995,-3.59245 -8.023995,-8.02402 0,-4.43147 3.592493,-8.02401 8.023995,-8.02401 4.431555,0 8.024063,3.59254 8.024063,8.02401 z M 69.14652,992.87506 c 0,5.35587 -4.341831,9.69774 -9.697702,9.69774 -5.35587,0 -9.697634,-4.34187 -9.697634,-9.69774 0,-5.35587 4.341764,-9.6977 9.697634,-9.6977 5.355871,0 9.697702,4.34183 9.697702,9.6977 z m 0,-36.26821 c 0,5.35587 -4.341831,9.6977 -9.697702,9.6977 -5.35587,0 -9.697634,-4.34183 -9.697634,-9.6977 0,-5.35587 4.341764,-9.69771 9.697634,-9.69771 5.355871,0 9.697702,4.34184 9.697702,9.69771 z m 0,-36.2668 c 0,5.35587 -4.341831,9.6977 -9.697702,9.6977 -5.35587,0 -9.697634,-4.34183 -9.697634,-9.6977 0,-5.35587 4.341764,-9.6977 9.697634,-9.6977 5.355871,0 9.697702,4.34183 9.697702,9.6977 z m 15.622423,42.98574 0,-13.39286 53.927487,0 0,13.39286 -53.927487,0 m 0,-36.41939 0,-13.39285 53.927487,0 0,13.39285 -53.927487,6.7e-4 m 62.659617,98.02523 c 4.64238,10e-5 8.5709,-1.6071 11.78572,-4.8215 3.57087,-3.2142 5.35661,-7.3213 5.35715,-12.3214 l 0,-102.85715 c -5.4e-4,-4.64265 -1.78628,-8.57125 -5.35715,-11.78571 -3.21482,-3.57128 -7.14334,-5.35696 -11.78572,-5.35713 l -102.857123,0 c -5.000417,1.7e-4 -9.107583,1.78585 -12.321457,5.35713 -3.214661,3.21446 -4.821849,7.14306 -4.821396,11.78571 l 0,102.85715 c -4.53e-4,5.0001 1.606735,9.1072 4.821396,12.3214 3.213874,3.2144 7.32104,4.8216 12.321457,4.8215 l 102.857123,0 m -102.857123,17.1428 c -9.643296,0 -17.857578,-3.2142 -24.642864,-9.6428 -6.428961,-6.7857 -9.643245,-15 -9.64286,-24.6429 l 0,-102.85715 c -3.85e-4,-9.28555 3.213899,-17.32129 9.64286,-24.10711 6.785286,-6.78557 14.999568,-10.1784 24.642864,-10.17856 l 102.857123,0 c 9.28521,1.6e-4 17.32086,3.39299 24.10715,10.17856 6.78516,6.78582 10.17804,14.82156 10.17857,24.10711 l 0,102.85715 c -5.3e-4,9.6429 -3.39341,17.8572 -10.17857,24.6429 -6.78629,6.4286 -14.82194,9.6428 -24.10715,9.6428 l -102.857123,0"
       inkscape:connector-curvature="0" />
  </g>
</svg>
