<?xml version="1.0" encoding="UTF-8" standalone="no"?>
<!-- Created with Inkscape (http://www.inkscape.org/) -->

<svg
   xmlns:dc="http://purl.org/dc/elements/1.1/"
   xmlns:cc="http://creativecommons.org/ns#"
   xmlns:rdf="http://www.w3.org/1999/02/22-rdf-syntax-ns#"
   xmlns:svg="http://www.w3.org/2000/svg"
   xmlns="http://www.w3.org/2000/svg"
   xmlns:sodipodi="http://sodipodi.sourceforge.net/DTD/sodipodi-0.dtd"
   xmlns:inkscape="http://www.inkscape.org/namespaces/inkscape"
   width="48"
   height="48"
   id="svg2"
   version="1.1"
   inkscape:version="0.48.1 r9760"
   sodipodi:docname="cardapio-dark64.svg"
   inkscape:export-filename="/home/jancborchardt/jancborchardt/Cardapio/cardapio-dark64.png"
   inkscape:export-xdpi="90"
   inkscape:export-ydpi="90">
  <defs
     id="defs4">
    <filter
       inkscape:collect="always"
       id="filter3963"
       color-interpolation-filters="sRGB">
      <feGaussianBlur
         inkscape:collect="always"
         stdDeviation="6.4"
         id="feGaussianBlur3965" />
    </filter>
  </defs>
  <sodipodi:namedview
     id="base"
     pagecolor="#ffffff"
     bordercolor="#666666"
     borderopacity="1.0"
     inkscape:pageopacity="0.0"
     inkscape:pageshadow="2"
     inkscape:zoom="0.61871843"
     inkscape:cx="283.82552"
     inkscape:cy="-91.16025"
     inkscape:document-units="px"
     inkscape:current-layer="layer1"
     showgrid="false"
     inkscape:window-width="1280"
     inkscape:window-height="776"
     inkscape:window-x="0"
     inkscape:window-y="24"
     inkscape:window-maximized="1"
     showguides="true"
     inkscape:guide-bbox="true" />
  <metadata
     id="metadata7">
    <rdf:RDF>
      <cc:Work
         rdf:about="">
        <dc:format>image/svg+xml</dc:format>
        <dc:type
           rdf:resource="http://purl.org/dc/dcmitype/StillImage" />
        <dc:title></dc:title>
      </cc:Work>
    </rdf:RDF>
  </metadata>
  <g
     inkscape:label="Layer 1"
     inkscape:groupmode="layer"
     id="layer1"
     transform="translate(0,-1004.3622)">
    <g
       style="font-size:40px;font-style:normal;font-weight:normal;line-height:125%;letter-spacing:0px;word-spacing:0px;fill:#000000;fill-opacity:1;stroke:none;font-family:Sans"
       id="text2985"
       transform="matrix(1.1160179,0,0,1.1160179,-14.849729,-107.24284)" />
    <g
       transform="matrix(1.1160179,0,0,1.1160179,-14.849729,-575.97034)"
       style="font-size:40px;font-style:normal;font-weight:normal;line-height:125%;letter-spacing:0px;word-spacing:0px;fill:#000000;fill-opacity:1;stroke:none;font-family:Sans"
       id="text2985-5" />
    <g
       id="g3881"
       style="font-size:40px;font-style:normal;font-weight:normal;line-height:125%;letter-spacing:0px;word-spacing:0px;fill:#000000;fill-opacity:1;stroke:none;font-family:Sans"
       transform="matrix(1.1160179,0,0,1.1160179,766.36281,-107.24284)" />
    <g
       id="g3889"
       style="font-size:40px;font-style:normal;font-weight:normal;line-height:125%;letter-spacing:0px;word-spacing:0px;fill:#000000;fill-opacity:1;stroke:none;font-family:Sans"
       transform="matrix(1.1160179,0,0,1.1160179,766.36281,-575.97034)" />
    <path
       id="path4172"
       style="fill:#ffffff;fill-opacity:0.47083333;fill-rule:evenodd;stroke:none;filter:url(#filter3963)"
       d="m 1142.8145,1351.0962 c 0,6.6178 -5.3648,11.9826 -11.9825,11.9826 -6.6178,0 -11.9826,-5.3648 -11.9826,-11.9826 0,-6.6178 5.3648,-11.9826 11.9826,-11.9826 6.6177,0 11.9825,5.3648 11.9825,11.9826 z m -31.14,0 c 0,6.6178 -5.3648,11.9826 -11.9825,11.9826 -6.6179,0 -11.9826,-5.3648 -11.9826,-11.9826 0,-6.6177 5.3647,-11.9825 11.9826,-11.9825 6.6177,0 11.9825,5.3648 11.9825,11.9825 z m -31.4814,0 c 0,6.6178 -5.3648,11.9826 -11.9826,11.9826 -6.6177,0 -11.9825,-5.3648 -11.9825,-11.9826 0,-6.6177 5.3648,-11.9825 11.9825,-11.9825 6.6178,0 11.9826,5.3648 11.9826,11.9825 z m -44.2943,-0.2061 c 0,7.9981 -6.4838,14.4819 -14.4819,14.4819 -7.9981,0 -14.4818,-6.4838 -14.4818,-14.4819 0,-7.9981 6.4837,-14.4819 14.4818,-14.4819 7.9981,0 14.4819,6.4838 14.4819,14.4819 z m 0,-54.1606 c 0,7.9982 -6.4838,14.4819 -14.4819,14.4819 -7.9981,0 -14.4818,-6.4837 -14.4818,-14.4819 0,-7.9981 6.4837,-14.4818 14.4818,-14.4818 7.9981,0 14.4819,6.4837 14.4819,14.4818 z m 0,-54.1583 c 0,7.9981 -6.4838,14.4819 -14.4819,14.4819 -7.9981,0 -14.4818,-6.4838 -14.4818,-14.4819 0,-7.9981 6.4837,-14.4819 14.4818,-14.4819 7.9981,0 14.4819,6.4838 14.4819,14.4819 z m 23.3295,64.192 0,-20 80.5317,0 0,20 -80.5317,0 m 0,-54.3863 0,-20 80.5317,0 0,20 -80.5317,10e-4 m 93.5717,146.3843 c 6.9326,1e-4 12.7992,-2.4 17.6,-7.2 5.3325,-4.7999 7.9992,-10.9333 8,-18.4 l 0,-153.6 c -8e-4,-6.9331 -2.6675,-12.7998 -8,-17.6 -4.8008,-5.3332 -10.6674,-7.9998 -17.6,-8 l -153.59999,0 c -7.46728,2e-4 -13.60065,2.6668 -18.40004,8 -4.80056,4.8002 -7.20062,10.6669 -7.19995,17.6 l 0,153.6 c -6.7e-4,7.4667 2.39939,13.6001 7.19995,18.4 4.79939,4.8 10.93276,7.2001 18.40004,7.2 l 153.59999,0 m -153.59999,25.6 c -14.40065,0 -26.66731,-4.7999 -36.8,-14.4 -9.60059,-10.1333 -14.40058,-22.4 -14.40001,-36.8 l 0,-153.6 c -5.7e-4,-13.8665 4.79942,-25.8665 14.40001,-36 10.13269,-10.1331 22.39935,-15.1997 36.8,-15.2 l 153.59999,0 c 13.8659,3e-4 25.8658,5.0669 36,15.2 10.1325,10.1335 15.1992,22.1335 15.2,36 l 0,153.6 c -8e-4,14.4 -5.0675,26.6667 -15.2,36.8 -10.1342,9.6001 -22.1341,14.4 -36,14.4 l -153.59999,0"
       inkscape:connector-curvature="0"
       transform="matrix(0.16741071,0,0,0.16741071,-156.13392,811.33726)" />
    <path
       inkscape:connector-curvature="0"
       d="m 35.18547,1037.5252 c 0,1.1079 -0.898133,2.0061 -2.006003,2.0061 -1.107888,0 -2.006022,-0.8982 -2.006022,-2.0061 0,-1.1079 0.898134,-2.006 2.006022,-2.006 1.10787,0 2.006003,0.8981 2.006003,2.006 z m -5.21318,0 c 0,1.1079 -0.898114,2.0061 -2.006003,2.0061 -1.107891,0 -2.006004,-0.8982 -2.006004,-2.0061 0,-1.1079 0.898113,-2.006 2.006004,-2.006 1.107889,0 2.006003,0.8981 2.006003,2.006 z m -5.270329,0 c 0,1.1079 -0.898112,2.0061 -2.006002,2.0061 -1.107869,0 -2.006003,-0.8982 -2.006003,-2.0061 0,-1.1079 0.898134,-2.006 2.006003,-2.006 1.10789,0 2.006002,0.8981 2.006002,2.006 z m -7.415335,-0.034 c 0,1.339 -1.085459,2.4245 -2.424426,2.4245 -1.338959,0 -2.4244,-1.0855 -2.4244,-2.4245 0,-1.3389 1.085441,-2.4244 2.4244,-2.4244 1.338967,0 2.424426,1.0855 2.424426,2.4244 z m 0,-9.067 c 0,1.339 -1.085459,2.4244 -2.424426,2.4244 -1.338959,0 -2.4244,-1.0854 -2.4244,-2.4244 0,-1.339 1.085441,-2.4245 2.4244,-2.4245 1.338967,0 2.424426,1.0855 2.424426,2.4245 z m 0,-9.0668 c 0,1.339 -1.085459,2.4245 -2.424426,2.4245 -1.338959,0 -2.4244,-1.0855 -2.4244,-2.4245 0,-1.3389 1.085441,-2.4243 2.4244,-2.4243 1.338967,0 2.424426,1.0854 2.424426,2.4243 z m 3.905622,10.7465 0,-3.3482 13.481872,0 0,3.3482 -13.481872,0 m 0,-9.1049 0,-3.3482 13.481872,0 0,3.3482 -13.481872,3e-4 m 15.664903,24.5063 c 1.16058,0 2.142706,-0.4019 2.946429,-1.2054 0.892713,-0.8036 1.339153,-1.8304 1.339278,-3.0804 l 0,-25.7143 c -1.25e-4,-1.1606 -0.446565,-2.1428 -1.339278,-2.9464 -0.803723,-0.8928 -1.785849,-1.3392 -2.946429,-1.3393 l -25.714287,0 c -1.2501049,10e-5 -2.2768968,0.4465 -3.0803651,1.3393 -0.803665,0.8036 -1.205462,1.7858 -1.2053491,2.9464 l 0,25.7143 c -1.129e-4,1.25 0.4016841,2.2768 1.2053491,3.0804 0.8034683,0.8035 1.8302602,1.2054 3.0803651,1.2054 l 25.714287,0 m -25.714287,4.2856 c -2.4108251,0 -4.4643953,-0.8035 -6.1607168,-2.4107 -1.6072402,-1.6963 -2.4108113,-3.75 -2.4107152,-6.1607 l 0,-25.7143 c -9.61e-5,-2.3214 0.803475,-4.3303 2.4107152,-6.0267 1.6963215,-1.6964 3.7498917,-2.5446 6.1607168,-2.5447 l 25.714287,0 c 2.321284,1e-4 4.330196,0.8483 6.026778,2.5447 1.696287,1.6964 2.544514,3.7053 2.544639,6.0267 l 0,25.7143 c -1.25e-4,2.4107 -0.848352,4.4644 -2.544639,6.1607 -1.696582,1.6072 -3.705494,2.4107 -6.026778,2.4107 l -25.714287,0"
       style="fill:#000000;fill-opacity:1;fill-rule:evenodd;stroke:none"
       id="path4196" />
  </g>
</svg>
