<?xml version="1.0" encoding="UTF-8" standalone="no"?>
<!-- Created with Inkscape (http://www.inkscape.org/) -->

<svg
   xmlns:dc="http://purl.org/dc/elements/1.1/"
   xmlns:cc="http://creativecommons.org/ns#"
   xmlns:rdf="http://www.w3.org/1999/02/22-rdf-syntax-ns#"
   xmlns:svg="http://www.w3.org/2000/svg"
   xmlns="http://www.w3.org/2000/svg"
   xmlns:sodipodi="http://sodipodi.sourceforge.net/DTD/sodipodi-0.dtd"
   xmlns:inkscape="http://www.inkscape.org/namespaces/inkscape"
   width="64"
   height="64"
   id="svg2"
   version="1.1"
   inkscape:version="0.48.1 r9760"
   sodipodi:docname="cardapio-light192.svg"
   inkscape:export-filename="/home/jancborchardt/jancborchardt/Cardapio/cardapio-light192.png"
   inkscape:export-xdpi="90"
   inkscape:export-ydpi="90">
  <defs
     id="defs4">
    <filter
       inkscape:collect="always"
       id="filter3781"
       color-interpolation-filters="sRGB">
      <feGaussianBlur
         inkscape:collect="always"
         stdDeviation="6.4"
         id="feGaussianBlur3783" />
    </filter>
  </defs>
  <sodipodi:namedview
     id="base"
     pagecolor="#ffffff"
     bordercolor="#666666"
     borderopacity="1.0"
     inkscape:pageopacity="0.0"
     inkscape:pageshadow="2"
     inkscape:zoom="0.61871843"
     inkscape:cx="82.603127"
     inkscape:cy="-91.16025"
     inkscape:document-units="px"
     inkscape:current-layer="layer1"
     showgrid="false"
     inkscape:window-width="1280"
     inkscape:window-height="776"
     inkscape:window-x="0"
     inkscape:window-y="24"
     inkscape:window-maximized="1"
     showguides="true"
     inkscape:guide-bbox="true" />
  <metadata
     id="metadata7">
    <rdf:RDF>
      <cc:Work
         rdf:about="">
        <dc:format>image/svg+xml</dc:format>
        <dc:type
           rdf:resource="http://purl.org/dc/dcmitype/StillImage" />
        <dc:title></dc:title>
      </cc:Work>
    </rdf:RDF>
  </metadata>
  <g
     inkscape:label="Layer 1"
     inkscape:groupmode="layer"
     id="layer1"
     transform="translate(0,-988.36218)">
    <g
       style="font-size:40px;font-style:normal;font-weight:normal;line-height:125%;letter-spacing:0px;word-spacing:0px;fill:#000000;fill-opacity:1;stroke:none;font-family:Sans"
       id="text2985"
       transform="matrix(0.75,0,0,0.75,-2.30002e-6,263.09054)" />
    <g
       transform="matrix(0.75,0,0,0.75,-2.30002e-6,-51.909441)"
       style="font-size:40px;font-style:normal;font-weight:normal;line-height:125%;letter-spacing:0px;word-spacing:0px;fill:#000000;fill-opacity:1;stroke:none;font-family:Sans"
       id="text2985-5" />
    <g
       id="g3881"
       style="font-size:40px;font-style:normal;font-weight:normal;line-height:125%;letter-spacing:0px;word-spacing:0px;fill:#000000;fill-opacity:1;stroke:none;font-family:Sans"
       transform="matrix(0.75,0,0,0.75,525,263.09054)" />
    <g
       id="g3889"
       style="font-size:40px;font-style:normal;font-weight:normal;line-height:125%;letter-spacing:0px;word-spacing:0px;fill:#000000;fill-opacity:1;stroke:none;font-family:Sans"
       transform="matrix(0.75,0,0,0.75,525,-51.909441)" />
    <path
       inkscape:connector-curvature="0"
       d="m 342.81452,1351.0962 c 0,6.6178 -5.36478,11.9826 -11.98255,11.9826 -6.61781,0 -11.98258,-5.3648 -11.98258,-11.9826 0,-6.6178 5.36477,-11.9826 11.98258,-11.9826 6.61777,0 11.98255,5.3648 11.98255,11.9826 z m -31.14002,0 c 0,6.6178 -5.36478,11.9826 -11.98255,11.9826 -6.61781,0 -11.98258,-5.3648 -11.98258,-11.9826 0,-6.6177 5.36477,-11.9825 11.98258,-11.9825 6.61777,0 11.98255,5.3648 11.98255,11.9825 z m -31.48138,0 c 0,6.6178 -5.36478,11.9826 -11.98259,11.9826 -6.61777,0 -11.98255,-5.3648 -11.98255,-11.9826 0,-6.6177 5.36478,-11.9825 11.98255,-11.9825 6.61781,0 11.98259,5.3648 11.98259,11.9825 z m -44.2943,-0.2061 c 0,7.9981 -6.48377,14.4819 -14.48188,14.4819 -7.99811,0 -14.48188,-6.4838 -14.48188,-14.4819 0,-7.9981 6.48377,-14.4819 14.48188,-14.4819 7.99811,0 14.48188,6.4838 14.48188,14.4819 z m 0,-54.1606 c 0,7.9982 -6.48377,14.4819 -14.48188,14.4819 -7.99811,0 -14.48188,-6.4837 -14.48188,-14.4819 0,-7.9981 6.48377,-14.4818 14.48188,-14.4818 7.99811,0 14.48188,6.4837 14.48188,14.4818 z m 0,-54.1583 c 0,7.9981 -6.48377,14.4819 -14.48188,14.4819 -7.99811,0 -14.48188,-6.4838 -14.48188,-14.4819 0,-7.9981 6.48377,-14.4819 14.48188,-14.4819 7.99811,0 14.48188,6.4838 14.48188,14.4819 z m 23.32944,64.192 0,-20 80.53177,0 0,20 -80.53177,0 m 0,-54.3863 0,-20 80.53177,0 0,20 -80.53177,10e-4 m 93.57173,146.3863 c 6.93257,10e-5 12.79922,-2.4 17.6,-7.2 5.33254,-4.7999 7.99919,-10.9333 8.00002,-18.4 l 0,-153.6 c -8.3e-4,-6.9331 -2.66748,-12.7998 -8.00002,-17.6 -4.80078,-5.3332 -10.66743,-7.9998 -17.6,-8 l -153.59998,0 c -7.46728,2e-4 -13.60065,2.6668 -18.40004,8 -4.80056,4.8002 -7.20062,10.6669 -7.19995,17.6 l 0,153.6 c -6.7e-4,7.4667 2.39939,13.6001 7.19995,18.4 4.79939,4.8 10.93276,7.2001 18.40004,7.2 l 153.59998,0 m -153.59998,25.6 c -14.40065,0 -26.66731,-4.7999 -36.8,-14.4 -9.60059,-10.1333 -14.40058,-22.4 -14.40001,-36.8 l 0,-153.6 c -5.7e-4,-13.8665 4.79942,-25.8665 14.40001,-36 10.13269,-10.1331 22.39935,-15.1997 36.8,-15.2 l 153.59998,0 c 13.86587,3e-4 25.86585,5.0669 35.99997,15.2 10.13253,10.1335 15.19921,22.1335 15.20004,36 l 0,153.6 c -8.3e-4,14.4 -5.06751,26.6667 -15.20004,36.8 -10.13412,9.6001 -22.1341,14.4 -35.99997,14.4 l -153.59998,0"
       style="fill:#000000;fill-opacity:0.35294118;fill-rule:evenodd;stroke:none;filter:url(#filter3781)"
       id="path4160"
       transform="matrix(0.22321429,0,0,0.22321429,-29.607151,730.99518)" />
    <path
       id="path3135"
       style="fill:#ffffff;fill-opacity:1;fill-rule:evenodd;stroke:none"
       d="m 46.913944,1032.5792 c 0,1.4771 -1.1975,2.6746 -2.674666,2.6746 -1.477187,0 -2.67469,-1.1975 -2.67469,-2.6746 0,-1.4772 1.197503,-2.6747 2.67469,-2.6747 1.477166,0 2.674666,1.1975 2.674666,2.6747 z m -6.950893,0 c 0,1.4771 -1.197503,2.6746 -2.674663,2.6746 -1.477214,0 -2.67469,-1.1975 -2.67469,-2.6746 0,-1.4772 1.197476,-2.6747 2.67469,-2.6747 1.47716,0 2.674663,1.1975 2.674663,2.6747 z m -7.027097,0 c 0,1.4771 -1.197503,2.6746 -2.674688,2.6746 -1.477167,0 -2.674665,-1.1975 -2.674665,-2.6746 0,-1.4772 1.197498,-2.6747 2.674665,-2.6747 1.477185,0 2.674688,1.1975 2.674688,2.6747 z m -9.88712,-0.046 c 0,1.7853 -1.447277,3.2326 -3.232567,3.2326 -1.78529,0 -3.232545,-1.4473 -3.232545,-3.2326 0,-1.7852 1.447255,-3.2325 3.232545,-3.2325 1.78529,0 3.232567,1.4473 3.232567,3.2325 z m 0,-12.0894 c 0,1.7853 -1.447277,3.2326 -3.232567,3.2326 -1.78529,0 -3.232545,-1.4473 -3.232545,-3.2326 0,-1.7852 1.447255,-3.2325 3.232545,-3.2325 1.78529,0 3.232567,1.4473 3.232567,3.2325 z m 0,-12.0889 c 0,1.7853 -1.447277,3.2326 -3.232567,3.2326 -1.78529,0 -3.232545,-1.4473 -3.232545,-3.2326 0,-1.7853 1.447255,-3.2326 3.232545,-3.2326 1.78529,0 3.232567,1.4473 3.232567,3.2326 z m 5.207475,14.3286 0,-4.4643 17.975829,0 0,4.4643 -17.975829,0 m 0,-12.1398 0,-4.4643 17.975829,0 0,4.4643 -17.975829,2e-4 m 20.886539,32.6751 c 1.54746,0 2.856966,-0.5357 3.928573,-1.6072 1.19029,-1.0714 1.785537,-2.4404 1.785717,-4.1071 l 0,-34.2857 c -1.8e-4,-1.5476 -0.595427,-2.8571 -1.785717,-3.92859 -1.071607,-1.19043 -2.381113,-1.78566 -3.928573,-1.78571 l -34.285708,0 c -1.666806,5e-5 -3.035861,0.59528 -4.107152,1.78571 -1.0715539,1.07149 -1.6072832,2.38099 -1.6071322,3.92859 l 0,34.2857 c -1.51e-4,1.6667 0.5355783,3.0357 1.6071322,4.1071 1.071291,1.0715 2.440346,1.6072 4.107152,1.6072 l 34.285708,0 m -34.285708,5.7143 c -3.214432,0 -5.9525259,-1.0714 -8.2142879,-3.2143 -2.142987,-2.2619 -3.2144149,-5 -3.2142866,-8.2143 l 0,-34.2857 c -1.283e-4,-3.0952 1.0712996,-5.77379 3.2142866,-8.03573 2.261762,-2.26185 4.9998559,-3.3928 8.2142879,-3.39285 l 34.285708,0 c 3.09507,5e-5 5.77362,1.131 8.035716,3.39285 2.26172,2.26194 3.39268,4.94053 3.392857,8.03573 l 0,34.2857 c -1.77e-4,3.2143 -1.131137,5.9524 -3.392857,8.2143 -2.262096,2.1429 -4.940646,3.2143 -8.035716,3.2143 l -34.285708,0"
       inkscape:connector-curvature="0" />
  </g>
</svg>
